<?xml version="1.0" encoding="UTF-8"?>
<!DOCTYPE svg PUBLIC "-//W3C//DTD SVG 1.1//EN" "http://www.w3.org/Graphics/SVG/1.1/DTD/svg11.dtd">
<svg xmlns="http://www.w3.org/2000/svg" version="1.1" width="1212px" height="704px" style="shape-rendering:geometricPrecision; text-rendering:geometricPrecision; image-rendering:optimizeQuality; fill-rule:evenodd; clip-rule:evenodd" xmlns:xlink="http://www.w3.org/1999/xlink">
<g><path style="opacity:1" fill="#f8f9fb" d="M 227.5,187.5 C 210.335,178.061 192.002,174.561 172.5,177C 168.321,178.681 165.321,181.515 163.5,185.5C 162.167,188.167 162.167,190.833 163.5,193.5C 163.932,194.71 164.599,195.71 165.5,196.5C 166.29,197.401 167.29,198.068 168.5,198.5C 174.54,201.851 180.874,204.684 187.5,207C 203.207,210.586 217.874,216.586 231.5,225C 233.756,227.083 235.756,229.25 237.5,231.5C 238.449,233.777 239.782,235.777 241.5,237.5C 244.406,242.781 246.239,248.447 247,254.5C 247.812,264.244 247.312,273.911 245.5,283.5C 244.566,284.568 244.232,285.901 244.5,287.5C 243.116,292.576 240.783,297.243 237.5,301.5C 233.806,305.529 229.806,309.196 225.5,312.5C 225.631,311.761 225.464,311.094 225,310.5C 217.491,315.228 209.324,318.394 200.5,320C 169.635,324.996 139.635,321.83 110.5,310.5C 110.76,299.813 110.76,289.146 110.5,278.5C 111.324,274.688 111.824,270.688 112,266.5C 112.519,265.484 113.353,264.818 114.5,264.5C 128.981,271.801 144.314,276.468 160.5,278.5C 163.55,279.935 166.883,280.602 170.5,280.5C 172.696,280.495 174.696,280.162 176.5,279.5C 177.833,279.167 179.167,278.833 180.5,278.5C 189.082,276.006 192.582,270.34 191,261.5C 189.542,259.04 187.709,256.873 185.5,255C 170.766,248.793 155.766,243.459 140.5,239C 113.629,227.773 102.462,207.607 107,178.5C 108.093,171.79 110.26,165.457 113.5,159.5C 112.443,159.094 111.109,159.094 109.5,159.5C 115.637,153.533 121.97,147.699 128.5,142C 147.324,132.238 167.324,128.905 188.5,132C 205.432,133.763 221.765,137.763 237.5,144C 237.586,159.483 236.419,174.983 234,190.5C 231.266,191.184 229.1,190.184 227.5,187.5 Z"/></g>
<g><path style="opacity:1" fill="#f8f9fb" d="M 451.5,204.5 C 451.438,209.076 452.105,213.409 453.5,217.5C 453.5,223.5 453.5,229.5 453.5,235.5C 452.275,240.29 451.608,245.29 451.5,250.5C 448.979,267.537 442.146,282.537 431,295.5C 425.968,300.034 421.134,304.7 416.5,309.5C 416.649,308.448 416.483,307.448 416,306.5C 400.69,316.491 383.857,321.658 365.5,322C 337.637,324.787 312.637,317.787 290.5,301C 272.148,283.121 262.315,261.287 261,235.5C 259.572,211.884 264.738,189.884 276.5,169.5C 278.806,168.625 279.473,167.292 278.5,165.5C 298.579,141.23 324.579,129.896 356.5,131.5C 388.025,130.164 414.192,141.164 435,164.5C 443.712,176.458 449.212,189.792 451.5,204.5 Z M 369.5,275.5 C 348.782,281.399 333.282,274.733 323,255.5C 317.035,240.165 316.035,224.498 320,208.5C 321.019,205.128 322.519,202.128 324.5,199.5C 344.493,195.052 359.327,201.719 369,219.5C 377.436,238.171 377.603,256.837 369.5,275.5 Z"/></g>
<g><path style="opacity:1" fill="#f8f9fc" d="M 600.5,158.5 C 599.508,165.648 599.175,172.981 599.5,180.5C 596.375,181.479 593.042,181.813 589.5,181.5C 569.007,180.503 548.34,180.169 527.5,180.5C 527.5,184.167 527.5,187.833 527.5,191.5C 527.244,195.269 527.577,198.936 528.5,202.5C 527.465,204.205 527.465,205.872 528.5,207.5C 537.154,208.538 545.821,208.538 554.5,207.5C 568.16,208.172 581.826,208.672 595.5,209C 596.656,223.092 596.823,237.258 596,251.5C 595.333,252.167 594.667,252.833 594,253.5C 591.859,252.925 589.359,252.592 586.5,252.5C 566.909,251.513 547.243,251.179 527.5,251.5C 527.5,255.167 527.5,258.833 527.5,262.5C 527.244,266.269 527.577,269.936 528.5,273.5C 527.531,288.785 527.198,304.119 527.5,319.5C 524.167,319.5 520.833,319.5 517.5,319.5C 503.579,318.518 489.579,318.185 475.5,318.5C 476.163,260.824 475.496,203.49 473.5,146.5C 473.211,142.894 473.544,139.394 474.5,136C 516.167,135.333 557.833,135.333 599.5,136C 600.481,143.413 600.814,150.913 600.5,158.5 Z"/></g>
<g><path style="opacity:1" fill="#f8fafc" d="M 668.5,319.5 C 653.578,318.517 638.578,318.184 623.5,318.5C 623.829,261.095 623.496,203.762 622.5,146.5C 622.211,142.894 622.544,139.394 623.5,136C 641.833,135.333 660.167,135.333 678.5,136C 679.022,136.561 679.355,137.228 679.5,138C 678.506,198.471 678.172,258.971 678.5,319.5C 675.167,319.5 671.833,319.5 668.5,319.5 Z"/></g>
<g><path style="opacity:1" fill="#f8f9fb" d="M 867.5,319.5 C 852.661,318.833 837.661,318.167 822.5,317.5C 819.675,307.2 817.008,296.866 814.5,286.5C 796.176,285.334 777.842,285.167 759.5,286C 758.421,289.15 757.421,292.316 756.5,295.5C 756.252,298.58 755.586,301.58 754.5,304.5C 754.942,305.739 755.609,306.739 756.5,307.5C 755.25,307.577 754.417,308.244 754,309.5C 753.543,312.796 752.709,315.963 751.5,319C 748.854,319.497 746.187,319.664 743.5,319.5C 728.245,318.517 712.911,318.183 697.5,318.5C 715.038,261.221 732.371,203.887 749.5,146.5C 750.1,143.668 750.767,140.835 751.5,138C 751.905,137.055 752.572,136.388 753.5,136C 776.167,135.333 798.833,135.333 821.5,136C 822,136.5 822.5,137 823,137.5C 841.064,197.667 859.564,257.667 878.5,317.5C 878.291,318.086 877.957,318.586 877.5,319C 874.183,319.498 870.85,319.665 867.5,319.5 Z M 773.5,235.5 C 775.223,237.78 775.889,240.447 775.5,243.5C 775.158,244.338 774.492,244.672 773.5,244.5C 772.5,244.5 771.5,244.5 770.5,244.5C 770.928,241.215 771.928,238.215 773.5,235.5 Z"/></g>
<g><path style="opacity:1" fill="#f5349b" d="M 472.5,146.5 C 474.159,203.787 475.159,261.12 475.5,318.5C 489.579,318.185 503.579,318.518 517.5,319.5C 517.665,322.85 517.498,326.183 517,329.5C 513.943,330.451 510.777,330.784 507.5,330.5C 493.245,329.518 478.912,329.184 464.5,329.5C 465.163,271.824 464.496,214.49 462.5,157.5C 462.5,157.167 462.5,156.833 462.5,156.5C 462.26,153.421 462.593,150.421 463.5,147.5C 466.428,146.516 469.428,146.183 472.5,146.5 Z"/></g>
<g><path style="opacity:1" fill="#f8c4e3" d="M 472.5,146.5 C 472.833,146.5 473.167,146.5 473.5,146.5C 475.496,203.49 476.163,260.824 475.5,318.5C 475.159,261.12 474.159,203.787 472.5,146.5 Z"/></g>
<g><path style="opacity:1" fill="#f3399e" d="M 622.5,146.5 C 623.496,203.762 623.829,261.095 623.5,318.5C 638.578,318.184 653.578,318.517 668.5,319.5C 668.665,322.85 668.498,326.183 668,329.5C 664.606,330.456 661.106,330.789 657.5,330.5C 642.578,329.517 627.578,329.184 612.5,329.5C 612.5,272.167 612.5,214.833 612.5,157.5C 611.209,157.737 610.209,157.404 609.5,156.5C 611.167,153.739 612.167,150.572 612.5,147C 615.817,146.502 619.15,146.335 622.5,146.5 Z"/></g>
<g><path style="opacity:1" fill="#f3399e" d="M 749.5,146.5 C 732.371,203.887 715.038,261.221 697.5,318.5C 712.911,318.183 728.245,318.517 743.5,319.5C 742.984,322.899 742.15,326.232 741,329.5C 738.281,330.444 735.448,330.777 732.5,330.5C 717.245,329.517 701.911,329.183 686.5,329.5C 703.56,272.32 721.226,215.32 739.5,158.5C 738.398,157.824 737.398,157.158 736.5,156.5C 737.496,156.586 738.329,156.252 739,155.5C 739.834,152.828 740.668,150.161 741.5,147.5C 744.086,146.52 746.753,146.187 749.5,146.5 Z"/></g>
<g><path style="opacity:1" fill="#6261fe" d="M 462.5,157.5 C 463.163,214.931 463.829,272.264 464.5,329.5C 478.912,329.184 493.245,329.518 507.5,330.5C 507.665,333.518 507.498,336.518 507,339.5C 506.25,340.126 505.416,340.626 504.5,341C 487.259,341.825 470.093,341.658 453,340.5C 452.5,312.835 452.333,285.169 452.5,257.5C 453.117,257.389 453.617,257.056 454,256.5C 454.795,249.42 454.628,242.42 453.5,235.5C 453.5,229.5 453.5,223.5 453.5,217.5C 453.5,216.833 453.5,216.167 453.5,215.5C 454.332,196.671 454.832,177.671 455,158.5C 457.381,157.565 459.881,157.232 462.5,157.5 Z"/></g>
<g><path style="opacity:0.982" fill="#6260fe" d="M 605.5,156.5 C 606.833,156.5 608.167,156.5 609.5,156.5C 610.209,157.404 611.209,157.737 612.5,157.5C 612.5,214.833 612.5,272.167 612.5,329.5C 627.578,329.184 642.578,329.517 657.5,330.5C 657.789,334.106 657.456,337.606 656.5,341C 638.5,341.667 620.5,341.667 602.5,341C 601.874,340.25 601.374,339.416 601,338.5C 600.91,285.941 601.077,233.274 601.5,180.5C 602.329,173.345 602.829,166.011 603,158.5C 603.995,157.934 604.828,157.267 605.5,156.5 Z"/></g>
<g><path style="opacity:1" fill="#6561fe" d="M 736.5,156.5 C 737.398,157.158 738.398,157.824 739.5,158.5C 721.226,215.32 703.56,272.32 686.5,329.5C 701.911,329.183 717.245,329.517 732.5,330.5C 732.116,334.423 730.783,337.923 728.5,341C 711.167,341.667 693.833,341.667 676.5,341C 675.919,340.107 675.585,339.107 675.5,338C 694.131,277.822 712.631,217.655 731,157.5C 732.699,156.594 734.533,156.261 736.5,156.5 Z"/></g>
<g><path style="opacity:1" fill="#9e4ed5" d="M 462.5,157.5 C 464.496,214.49 465.163,271.824 464.5,329.5C 463.829,272.264 463.163,214.931 462.5,157.5 Z"/></g>
<g><path style="opacity:0.056" fill="#aaa8fe" d="M 605.5,156.5 C 604.828,157.267 603.995,157.934 603,158.5C 602.829,166.011 602.329,173.345 601.5,180.5C 601.649,179.448 601.483,178.448 601,177.5C 600.768,178.737 600.268,179.737 599.5,180.5C 599.175,172.981 599.508,165.648 600.5,158.5C 601.82,157.058 603.486,156.392 605.5,156.5 Z"/></g>
<g><path style="opacity:1" fill="#f4389c" d="M 180.5,278.5 C 181.364,271.728 178.697,266.895 172.5,264C 156.512,258.335 140.512,252.668 124.5,247C 99.5281,233.436 90.3614,212.603 97,184.5C 98.204,178.926 100.371,173.759 103.5,169C 102.906,168.536 102.239,168.369 101.5,168.5C 104.167,165.5 106.833,162.5 109.5,159.5C 111.109,159.094 112.443,159.094 113.5,159.5C 110.26,165.457 108.093,171.79 107,178.5C 102.462,207.607 113.629,227.773 140.5,239C 155.766,243.459 170.766,248.793 185.5,255C 187.709,256.873 189.542,259.04 191,261.5C 192.582,270.34 189.082,276.006 180.5,278.5 Z"/></g>
<g><path style="opacity:0.734" fill="#7a73fe" d="M 462.5,156.5 C 462.5,156.833 462.5,157.167 462.5,157.5C 459.881,157.232 457.381,157.565 455,158.5C 454.832,177.671 454.332,196.671 453.5,215.5C 453.819,210.637 453.486,205.97 452.5,201.5C 452.333,186.83 452.5,172.163 453,157.5C 456.057,156.549 459.223,156.216 462.5,156.5 Z"/></g>
<g><path style="opacity:0.996" fill="#6460fd" d="M 101.5,168.5 C 102.239,168.369 102.906,168.536 103.5,169C 100.371,173.759 98.204,178.926 97,184.5C 90.3614,212.603 99.5281,233.436 124.5,247C 140.512,252.668 156.512,258.335 172.5,264C 178.697,266.895 181.364,271.728 180.5,278.5C 179.167,278.833 177.833,279.167 176.5,279.5C 170.93,280.584 166.43,278.917 163,274.5C 162.601,274.728 162.435,275.062 162.5,275.5C 150.112,270.778 137.446,266.611 124.5,263C 110.403,258.379 98.9027,250.212 90,238.5C 84.7319,225.344 83.0652,211.678 85,197.5C 86.9214,185.642 92.4214,175.975 101.5,168.5 Z"/></g>
<g><path style="opacity:0.404" fill="#ffa5eb" d="M 278.5,165.5 C 279.473,167.292 278.806,168.625 276.5,169.5C 274.5,171.167 272.5,172.833 270.5,174.5C 270.167,174.5 269.833,174.5 269.5,174.5C 272.167,171.167 275.167,168.167 278.5,165.5 Z"/></g>
<g><path style="opacity:1" fill="#f4379c" d="M 276.5,169.5 C 264.738,189.884 259.572,211.884 261,235.5C 262.315,261.287 272.148,283.121 290.5,301C 312.637,317.787 337.637,324.787 365.5,322C 383.857,321.658 400.69,316.491 416,306.5C 416.483,307.448 416.649,308.448 416.5,309.5C 413.874,311.823 411.207,314.157 408.5,316.5C 408.44,315.957 408.107,315.624 407.5,315.5C 392.6,326.19 375.933,332.023 357.5,333C 329.503,336.002 304.17,329.336 281.5,313C 261.783,294.062 251.449,270.895 250.5,243.5C 251.118,236.183 251.451,228.849 251.5,221.5C 253.716,204.081 260.05,188.414 270.5,174.5C 272.5,172.833 274.5,171.167 276.5,169.5 Z"/></g>
<g><path style="opacity:1" fill="#f5379d" d="M 227.5,187.5 C 226.5,187.5 225.5,187.5 224.5,187.5C 224.666,191.846 224.499,196.179 224,200.5C 223.439,201.022 222.772,201.355 222,201.5C 219.425,200.257 216.925,198.924 214.5,197.5C 204.241,191.09 192.908,187.423 180.5,186.5C 174.797,185.654 169.13,185.321 163.5,185.5C 165.321,181.515 168.321,178.681 172.5,177C 192.002,174.561 210.335,178.061 227.5,187.5 Z"/></g>
<g><path style="opacity:1" fill="#f5399c" d="M 378.5,272.5 C 385.958,257.696 388.458,242.029 386,225.5C 383.116,207.869 373.616,195.369 357.5,188C 347.506,185.454 337.84,186.288 328.5,190.5C 337.554,178.485 349.554,173.985 364.5,177C 376.934,180.428 386.101,187.928 392,199.5C 400.971,222.583 398.971,244.583 386,265.5C 383.63,268.039 381.13,270.372 378.5,272.5 Z"/></g>
<g><path style="opacity:1" fill="#f2369e" d="M 589.5,181.5 C 589.665,184.85 589.498,188.183 589,191.5C 586.959,192.423 584.792,192.756 582.5,192.5C 564.341,191.503 546.008,191.17 527.5,191.5C 527.5,187.833 527.5,184.167 527.5,180.5C 548.34,180.169 569.007,180.503 589.5,181.5 Z"/></g>
<g><path style="opacity:1" fill="#f53c9d" d="M 790.5,245.5 C 787.611,231.612 784.277,217.945 780.5,204.5C 781.356,196.745 782.689,189.078 784.5,181.5C 786.144,181.286 787.644,181.62 789,182.5C 794.312,203.412 799.145,224.412 803.5,245.5C 799.167,245.5 794.833,245.5 790.5,245.5 Z"/></g>
<g><path style="opacity:1" fill="#6761fd" d="M 269.5,174.5 C 269.833,174.5 270.167,174.5 270.5,174.5C 260.05,188.414 253.716,204.081 251.5,221.5C 250.566,226.986 249.899,232.653 249.5,238.5C 249.507,240.369 249.84,242.036 250.5,243.5C 251.449,270.895 261.783,294.062 281.5,313C 304.17,329.336 329.503,336.002 357.5,333C 375.933,332.023 392.6,326.19 407.5,315.5C 408.107,315.624 408.44,315.957 408.5,316.5C 398.156,328.684 385.156,336.85 369.5,341C 344.967,346.198 320.634,345.531 296.5,339C 274.896,331.229 259.229,317.063 249.5,296.5C 248.573,292.053 247.24,287.719 245.5,283.5C 247.312,273.911 247.812,264.244 247,254.5C 246.239,248.447 244.406,242.781 241.5,237.5C 241.802,234.941 241.468,232.607 240.5,230.5C 242.798,207.901 252.465,189.234 269.5,174.5 Z"/></g>
<g><path style="opacity:1" fill="#b760d1" d="M 163.5,185.5 C 169.13,185.321 174.797,185.654 180.5,186.5C 174.797,186.375 169.13,186.708 163.5,187.5C 163.5,189.5 163.5,191.5 163.5,193.5C 162.167,190.833 162.167,188.167 163.5,185.5 Z"/></g>
<g><path style="opacity:1" fill="#6560fd" d="M 180.5,186.5 C 192.908,187.423 204.241,191.09 214.5,197.5C 214.771,202.434 214.104,207.1 212.5,211.5C 198.276,202.316 182.609,197.316 165.5,196.5C 164.599,195.71 163.932,194.71 163.5,193.5C 163.5,191.5 163.5,189.5 163.5,187.5C 169.13,186.708 174.797,186.375 180.5,186.5 Z"/></g>
<g><path style="opacity:1" fill="#6760fc" d="M 378.5,272.5 C 376.388,273.44 374.388,274.606 372.5,276C 371.251,276.74 370.251,276.573 369.5,275.5C 377.603,256.837 377.436,238.171 369,219.5C 359.327,201.719 344.493,195.052 324.5,199.5C 324.196,198.85 323.863,198.183 323.5,197.5C 324.943,194.923 326.61,192.59 328.5,190.5C 337.84,186.288 347.506,185.454 357.5,188C 373.616,195.369 383.116,207.869 386,225.5C 388.458,242.029 385.958,257.696 378.5,272.5 Z"/></g>
<g><path style="opacity:1" fill="#6562fe" d="M 527.5,191.5 C 546.008,191.17 564.341,191.503 582.5,192.5C 581.5,192.5 580.5,192.5 579.5,192.5C 579.784,195.777 579.451,198.943 578.5,202C 561.837,202.5 545.17,202.667 528.5,202.5C 527.577,198.936 527.244,195.269 527.5,191.5 Z"/></g>
<g><path style="opacity:0.137" fill="#7d7bfe" d="M 165.5,196.5 C 182.609,197.316 198.276,202.316 212.5,211.5C 212.44,212.043 212.107,212.376 211.5,212.5C 198.1,204.249 183.767,199.582 168.5,198.5C 167.29,198.068 166.29,197.401 165.5,196.5 Z"/></g>
<g><path style="opacity:0.107" fill="#a8a8f7" d="M 452.5,201.5 C 453.486,205.97 453.819,210.637 453.5,215.5C 453.5,216.167 453.5,216.833 453.5,217.5C 452.105,213.409 451.438,209.076 451.5,204.5C 452.404,203.791 452.737,202.791 452.5,201.5 Z"/></g>
<g><path style="opacity:1" fill="#6662fd" d="M 780.5,204.5 C 784.277,217.945 787.611,231.612 790.5,245.5C 784.642,245.822 778.975,245.489 773.5,244.5C 774.492,244.672 775.158,244.338 775.5,243.5C 776.892,238.914 776.225,234.58 773.5,230.5C 775.233,221.561 777.566,212.894 780.5,204.5 Z"/></g>
<g><path style="opacity:0.588" fill="#adaafe" d="M 240.5,230.5 C 241.468,232.607 241.802,234.941 241.5,237.5C 239.782,235.777 238.449,233.777 237.5,231.5C 238.895,232.815 239.895,232.481 240.5,230.5 Z"/></g>
<g><path style="opacity:0.216" fill="#9897ff" d="M 773.5,230.5 C 776.225,234.58 776.892,238.914 775.5,243.5C 775.889,240.447 775.223,237.78 773.5,235.5C 773.5,233.833 773.5,232.167 773.5,230.5 Z"/></g>
<g><path style="opacity:1" fill="#ab4acd" d="M 251.5,221.5 C 251.451,228.849 251.118,236.183 250.5,243.5C 249.84,242.036 249.507,240.369 249.5,238.5C 249.899,232.653 250.566,226.986 251.5,221.5 Z"/></g>
<g><path style="opacity:0.766" fill="#918ffc" d="M 453.5,235.5 C 454.628,242.42 454.795,249.42 454,256.5C 453.617,257.056 453.117,257.389 452.5,257.5C 452.802,254.941 452.468,252.607 451.5,250.5C 451.608,245.29 452.275,240.29 453.5,235.5 Z"/></g>
<g><path style="opacity:1" fill="#f53d9f" d="M 586.5,252.5 C 586.751,255.909 586.417,259.242 585.5,262.5C 582.232,263.487 578.898,263.82 575.5,263.5C 559.578,262.516 543.578,262.183 527.5,262.5C 527.5,258.833 527.5,255.167 527.5,251.5C 547.243,251.179 566.909,251.513 586.5,252.5 Z"/></g>
<g><path style="opacity:1" fill="#6460fd" d="M 527.5,262.5 C 543.578,262.183 559.578,262.516 575.5,263.5C 575.5,266.833 575.5,270.167 575.5,273.5C 559.833,273.5 544.167,273.5 528.5,273.5C 527.577,269.936 527.244,266.269 527.5,262.5 Z"/></g>
<g><path style="opacity:0.381" fill="#8c89fe" d="M 176.5,279.5 C 174.696,280.162 172.696,280.495 170.5,280.5C 166.883,280.602 163.55,279.935 160.5,278.5C 164.64,279.044 165.307,278.044 162.5,275.5C 162.435,275.062 162.601,274.728 163,274.5C 166.43,278.917 170.93,280.584 176.5,279.5 Z"/></g>
<g><path style="opacity:1" fill="#f43a9e" d="M 110.5,278.5 C 110.76,289.146 110.76,299.813 110.5,310.5C 139.635,321.83 169.635,324.996 200.5,320C 209.324,318.394 217.491,315.228 225,310.5C 225.464,311.094 225.631,311.761 225.5,312.5C 222.64,316.272 219.306,319.605 215.5,322.5C 215.44,321.957 215.107,321.624 214.5,321.5C 198.642,330.074 181.642,334.074 163.5,333.5C 141.094,333.406 119.594,329.073 99,320.5C 99.319,309.845 99.819,299.179 100.5,288.5C 100.372,284.119 100.705,279.785 101.5,275.5C 105.003,275.129 108.003,276.129 110.5,278.5 Z"/></g>
<g><path style="opacity:1" fill="#f5389c" d="M 867.5,319.5 C 866.351,319.791 865.684,320.624 865.5,322C 865.879,324.092 866.546,326.092 867.5,328C 867.355,328.772 867.022,329.439 866.5,330C 862.514,330.499 858.514,330.666 854.5,330.5C 840.245,329.518 825.912,329.184 811.5,329.5C 808.99,318.462 806.324,307.462 803.5,296.5C 787.848,295.501 772.181,295.167 756.5,295.5C 757.421,292.316 758.421,289.15 759.5,286C 777.842,285.167 796.176,285.334 814.5,286.5C 817.008,296.866 819.675,307.2 822.5,317.5C 837.661,318.167 852.661,318.833 867.5,319.5 Z"/></g>
<g><path style="opacity:0.995" fill="#6460fe" d="M 100.5,288.5 C 99.819,299.179 99.319,309.845 99,320.5C 119.594,329.073 141.094,333.406 163.5,333.5C 181.642,334.074 198.642,330.074 214.5,321.5C 215.107,321.624 215.44,321.957 215.5,322.5C 208.067,332.049 198.401,338.215 186.5,341C 154.168,347.478 122.502,345.145 91.5,334C 90.0692,333.535 88.9025,332.701 88,331.5C 88.5306,317.516 89.1973,303.516 90,289.5C 90.1183,287.427 91.1183,286.093 93,285.5C 95.4373,286.8 97.9373,287.8 100.5,288.5 Z"/></g>
<g><path style="opacity:0.039" fill="#908dfe" d="M 245.5,283.5 C 247.24,287.719 248.573,292.053 249.5,296.5C 248.017,293.372 246.351,290.372 244.5,287.5C 244.232,285.901 244.566,284.568 245.5,283.5 Z"/></g>
<g><path style="opacity:1" fill="#6560fd" d="M 756.5,295.5 C 772.181,295.167 787.848,295.501 803.5,296.5C 806.324,307.462 808.99,318.462 811.5,329.5C 825.912,329.184 840.245,329.518 854.5,330.5C 855.162,333.148 855.829,335.815 856.5,338.5C 856.392,339.442 856.059,340.275 855.5,341C 837.5,341.667 819.5,341.667 801.5,341C 800.299,340.097 799.465,338.931 799,337.5C 797,327.487 794.5,317.654 791.5,308C 779.838,307.5 768.171,307.333 756.5,307.5C 755.609,306.739 754.942,305.739 754.5,304.5C 755.586,301.58 756.252,298.58 756.5,295.5 Z"/></g>
<g><path style="opacity:1" fill="#f8f9fb" d="M 424.5,532.5 C 420.541,531.894 416.541,531.227 412.5,530.5C 407.64,515.415 402.307,500.582 396.5,486C 369.5,485.333 342.5,485.333 315.5,486C 313.792,489.293 312.792,492.793 312.5,496.5C 310.597,499.53 309.263,502.863 308.5,506.5C 309.791,506.263 310.791,506.596 311.5,507.5C 309.589,507.574 308.422,508.574 308,510.5C 305.645,517.607 303.145,524.607 300.5,531.5C 298.604,532.466 296.604,532.799 294.5,532.5C 288.355,531.51 282.022,531.177 275.5,531.5C 295.527,474.588 315.86,417.755 336.5,361C 335.944,359.989 335.278,359.156 334.5,358.5C 335.496,358.586 336.329,358.252 337,357.5C 337.739,353.938 339.239,350.772 341.5,348C 351.849,347.168 362.183,347.334 372.5,348.5C 372.808,349.308 373.308,349.975 374,350.5C 393.709,406.255 413.709,461.921 434,517.5C 435.788,522.391 436.955,527.391 437.5,532.5C 433.167,532.5 428.833,532.5 424.5,532.5 Z M 341.5,412.5 C 342.313,414.261 343.313,415.928 344.5,417.5C 349.37,433.306 354.703,448.973 360.5,464.5C 360.043,465.298 359.376,465.631 358.5,465.5C 347.167,465.5 335.833,465.5 324.5,465.5C 330.011,447.792 335.677,430.126 341.5,412.5 Z"/></g>
<g><path style="opacity:1" fill="#f8f9fb" d="M 742.5,370.5 C 715.574,369.509 688.574,369.176 661.5,369.5C 661.5,373.167 661.5,376.833 661.5,380.5C 661.5,383.833 661.5,387.167 661.5,390.5C 663.415,390.216 665.081,390.549 666.5,391.5C 665.178,391.33 664.011,391.663 663,392.5C 662.5,404.162 662.333,415.829 662.5,427.5C 690.835,427.333 719.169,427.5 747.5,428C 748.645,434.752 748.811,441.586 748,448.5C 744.606,449.456 741.106,449.789 737.5,449.5C 736.833,449.5 736.167,449.5 735.5,449.5C 711.006,448.502 686.339,448.169 661.5,448.5C 661.5,452.167 661.5,455.833 661.5,459.5C 660.99,463.813 661.657,467.813 663.5,471.5C 662.17,483.902 662.17,496.402 663.5,509C 692.833,509.333 722.167,509.667 751.5,510C 752.789,513.402 753.456,517.069 753.5,521C 753.333,524.5 753.167,528 753,531.5C 750.959,532.423 748.792,532.756 746.5,532.5C 710.671,531.502 674.671,531.168 638.5,531.5C 639.156,473.618 638.49,415.951 636.5,358.5C 637.766,356.306 637.766,353.972 636.5,351.5C 637.04,350.252 637.707,349.085 638.5,348C 676.5,347.333 714.5,347.333 752.5,348C 753.646,355.086 753.812,362.253 753,369.5C 749.606,370.456 746.106,370.789 742.5,370.5 Z"/></g>
<g><path style="opacity:1" fill="#f8f9fb" d="M 890.5,458.5 C 890.187,460.021 890.687,461.688 892,463.5C 895.411,467.399 898.578,471.399 901.5,475.5C 901.328,476.492 901.662,477.158 902.5,477.5C 905.118,482.413 908.452,486.746 912.5,490.5C 913.167,468.669 913.5,446.669 913.5,424.5C 913.5,402.156 912.833,380.156 911.5,358.5C 911.211,354.894 911.544,351.394 912.5,348C 920.413,347.186 928.246,347.353 936,348.5C 936.667,409.5 936.667,470.5 936,531.5C 932.606,532.456 929.106,532.789 925.5,532.5C 921.541,531.894 917.541,531.227 913.5,530.5C 880.246,482.991 846.746,435.658 813,388.5C 812.5,397.16 812.334,405.827 812.5,414.5C 812.275,424.199 812.608,433.866 813.5,443.5C 813.667,472.835 813.5,502.169 813,531.5C 809.606,532.456 806.106,532.789 802.5,532.5C 798.063,531.887 793.73,531.22 789.5,530.5C 789.5,473.5 789.5,416.5 789.5,359.5C 788.209,359.737 787.209,359.404 786.5,358.5C 788.171,355.392 789.171,351.892 789.5,348C 797.272,347.069 804.939,347.402 812.5,349C 838.351,385.671 864.351,422.171 890.5,458.5 Z"/></g>
<g><path style="opacity:0.998" fill="#f8f9fb" d="M 570.5,444.5 C 570.565,444.062 570.399,443.728 570,443.5C 562.377,448.112 554.21,451.279 545.5,453C 547.402,454.73 549.069,456.563 550.5,458.5C 551.262,460.262 552.596,461.262 554.5,461.5C 571.751,483.652 589.251,505.652 607,527.5C 607.494,529.134 607.66,530.801 607.5,532.5C 602.5,532.5 597.5,532.5 592.5,532.5C 588.316,531.834 583.982,531.167 579.5,530.5C 560.379,506.424 541.379,482.257 522.5,458C 512.172,457.5 501.839,457.334 491.5,457.5C 490.835,460.817 490.501,464.317 490.5,468C 490.512,471.902 491.179,475.402 492.5,478.5C 492.5,478.833 492.5,479.167 492.5,479.5C 492.667,496.837 492.5,514.17 492,531.5C 489.959,532.423 487.792,532.756 485.5,532.5C 479.5,531.833 473.5,531.167 467.5,530.5C 468.163,473.157 467.496,416.157 465.5,359.5C 465.5,359.167 465.5,358.833 465.5,358.5C 466.198,355.103 466.865,351.603 467.5,348C 496.885,346.876 526.219,347.543 555.5,350C 576.009,353.842 588.176,366.009 592,386.5C 594.368,402.057 592.035,416.724 585,430.5C 580.938,436.064 576.104,440.731 570.5,444.5 Z M 492.5,390.5 C 493.5,390.5 494.5,390.5 495.5,390.5C 509.964,389.131 523.63,391.631 536.5,398C 545.047,408.57 547.381,420.403 543.5,433.5C 538.362,434.947 533.029,436.114 527.5,437C 515.819,437.635 504.152,437.469 492.5,436.5C 492.5,421.167 492.5,405.833 492.5,390.5 Z"/></g>
<g><path style="opacity:1" fill="#f8f9fb" d="M 1103.5,514.5 C 1103.44,513.957 1103.11,513.624 1102.5,513.5C 1100.79,514.887 1099.12,516.221 1097.5,517.5C 1084.04,524.709 1069.7,529.209 1054.5,531C 1030.17,531.5 1005.84,531.667 981.5,531.5C 981.5,474.167 981.5,416.833 981.5,359.5C 979.901,359.768 978.568,359.434 977.5,358.5C 978.5,358.5 979.5,358.5 980.5,358.5C 980.249,355.091 980.583,351.758 981.5,348.5C 1011.21,346.873 1040.88,347.373 1070.5,350C 1105.33,358.499 1126.17,380.332 1133,415.5C 1135.4,434.62 1134.73,453.62 1131,472.5C 1126.43,489.56 1117.26,503.56 1103.5,514.5 Z M 1007.5,390.5 C 1022.51,389.613 1037.18,391.447 1051.5,396C 1071.62,405.354 1083.12,421.188 1086,443.5C 1088.67,463.289 1086.17,482.289 1078.5,500.5C 1078.05,501.458 1077.38,502.292 1076.5,503C 1068.27,506.892 1059.6,509.225 1050.5,510C 1035.84,510.5 1021.17,510.667 1006.5,510.5C 1006.17,470.428 1006.51,430.428 1007.5,390.5 Z"/></g>
<g><path style="opacity:1" fill="#f43a9e" d="M 334.5,358.5 C 335.278,359.156 335.944,359.989 336.5,361C 315.86,417.755 295.527,474.588 275.5,531.5C 282.022,531.177 288.355,531.51 294.5,532.5C 292.671,535.225 291.005,538.225 289.5,541.5C 287.257,542.474 284.924,542.808 282.5,542.5C 276.552,541.873 270.552,541.206 264.5,540.5C 285.167,484.167 305.833,427.833 326.5,371.5C 325.757,370.818 325.091,370.151 324.5,369.5C 325.458,369.047 326.292,368.381 327,367.5C 327.511,365.122 328.178,362.788 329,360.5C 330.444,358.845 332.278,358.178 334.5,358.5 Z"/></g>
<g><path style="opacity:1" fill="#f4349c" d="M 465.5,358.5 C 465.5,358.833 465.5,359.167 465.5,359.5C 466.163,416.598 466.829,473.598 467.5,530.5C 473.5,531.167 479.5,531.833 485.5,532.5C 484.167,532.5 482.833,532.5 481.5,532.5C 481.784,535.777 481.451,538.943 480.5,542C 477.183,542.498 473.85,542.665 470.5,542.5C 465.93,541.559 461.263,541.226 456.5,541.5C 456.832,483.998 456.499,426.664 455.5,369.5C 455.335,366.15 455.502,362.817 456,359.5C 459.057,358.549 462.223,358.216 465.5,358.5 Z"/></g>
<g><path style="opacity:1" fill="#f63a9d" d="M 636.5,358.5 C 638.49,415.951 639.156,473.618 638.5,531.5C 674.671,531.168 710.671,531.502 746.5,532.5C 745.5,532.5 744.5,532.5 743.5,532.5C 743.74,535.579 743.407,538.579 742.5,541.5C 739.232,542.487 735.898,542.82 732.5,542.5C 697.543,541.513 662.543,541.18 627.5,541.5C 627.829,483.762 627.496,426.095 626.5,368.5C 626.335,365.482 626.502,362.482 627,359.5C 630.057,358.549 633.223,358.216 636.5,358.5 Z"/></g>
<g><path style="opacity:1" fill="#f3349c" d="M 789.5,530.5 C 793.73,531.22 798.063,531.887 802.5,532.5C 802.784,535.777 802.451,538.943 801.5,542C 798.183,542.498 794.85,542.665 791.5,542.5C 787.265,541.564 782.931,541.231 778.5,541.5C 779.149,483.686 778.483,426.019 776.5,368.5C 777.649,368.209 778.316,367.376 778.5,366C 778.227,364.467 777.894,362.967 777.5,361.5C 781.099,360.656 784.766,360.323 788.5,360.5C 788.168,417.336 788.501,474.002 789.5,530.5 Z"/></g>
<g><path style="opacity:1" fill="#f6339a" d="M 910.5,358.5 C 912.486,402.281 913.153,446.281 912.5,490.5C 908.452,486.746 905.118,482.413 902.5,477.5C 902.832,441.329 902.498,405.329 901.5,369.5C 901.5,365.833 901.5,362.167 901.5,358.5C 904.5,358.5 907.5,358.5 910.5,358.5 Z"/></g>
<g><path style="opacity:1" fill="#f8d2e9" d="M 910.5,358.5 C 910.833,358.5 911.167,358.5 911.5,358.5C 912.833,380.156 913.5,402.156 913.5,424.5C 913.5,446.669 913.167,468.669 912.5,490.5C 913.153,446.281 912.486,402.281 910.5,358.5 Z"/></g>
<g><path style="opacity:1" fill="#f5349a" d="M 977.5,358.5 C 978.568,359.434 979.901,359.768 981.5,359.5C 981.5,416.833 981.5,474.167 981.5,531.5C 1005.84,531.667 1030.17,531.5 1054.5,531C 1069.7,529.209 1084.04,524.709 1097.5,517.5C 1097.94,517.435 1098.27,517.601 1098.5,518C 1095.94,520.733 1093.27,523.233 1090.5,525.5C 1078.65,533.175 1065.65,538.008 1051.5,540C 1024.86,541.415 998.195,541.915 971.5,541.5C 971.5,484.5 971.5,427.5 971.5,370.5C 969.517,370.843 968.183,370.176 967.5,368.5C 968.5,368.5 969.5,368.5 970.5,368.5C 969.934,365.417 969.934,362.417 970.5,359.5C 972.743,358.526 975.076,358.192 977.5,358.5 Z"/></g>
<g><path style="opacity:1" fill="#f76ab6" d="M 465.5,359.5 C 467.496,416.157 468.163,473.157 467.5,530.5C 466.829,473.598 466.163,416.598 465.5,359.5 Z"/></g>
<g><path style="opacity:1" fill="#f65aaf" d="M 786.5,358.5 C 787.209,359.404 788.209,359.737 789.5,359.5C 789.5,416.5 789.5,473.5 789.5,530.5C 788.501,474.002 788.168,417.336 788.5,360.5C 784.766,360.323 781.099,360.656 777.5,361.5C 777.804,360.85 778.137,360.183 778.5,359.5C 781.086,358.52 783.753,358.187 786.5,358.5 Z"/></g>
<g><path style="opacity:1" fill="#f783c1" d="M 543.5,370.5 C 526.19,369.571 508.857,369.238 491.5,369.5C 491.5,372.833 491.5,376.167 491.5,379.5C 491.167,379.5 490.833,379.5 490.5,379.5C 490.5,375.833 490.5,372.167 490.5,368.5C 506.837,368.333 523.17,368.5 539.5,369C 541.058,369.21 542.391,369.71 543.5,370.5 Z"/></g>
<g><path style="opacity:1" fill="#f5379b" d="M 543.5,370.5 C 555.868,372.365 563.701,379.365 567,391.5C 568.742,403.73 566.408,415.063 560,425.5C 558.242,427.765 556.075,429.432 553.5,430.5C 557.986,417.252 557.486,404.252 552,391.5C 545.22,384.011 536.72,380.178 526.5,380C 514.838,379.5 503.171,379.333 491.5,379.5C 491.5,376.167 491.5,372.833 491.5,369.5C 508.857,369.238 526.19,369.571 543.5,370.5 Z"/></g>
<g><path style="opacity:1" fill="#f5399c" d="M 1107.5,420.5 C 1108.23,429.815 1108.57,439.148 1108.5,448.5C 1107.78,462.6 1103.62,475.6 1096,487.5C 1093.33,491.334 1090.17,494.667 1086.5,497.5C 1100.3,470.366 1102.13,442.366 1092,413.5C 1081.4,392.437 1064.23,381.271 1040.5,380C 1028.84,379.5 1017.17,379.333 1005.5,379.5C 1005.5,375.833 1005.5,372.167 1005.5,368.5C 1020.5,368.333 1035.5,368.5 1050.5,369C 1082.88,371.5 1101.88,388.666 1107.5,420.5 Z"/></g>
<g><path style="opacity:0.999" fill="#6760fd" d="M 324.5,369.5 C 325.091,370.151 325.757,370.818 326.5,371.5C 305.833,427.833 285.167,484.167 264.5,540.5C 270.552,541.206 276.552,541.873 282.5,542.5C 281.594,546.149 280.26,549.649 278.5,553C 270.5,553.667 262.5,553.667 254.5,553C 253.978,552.439 253.645,551.772 253.5,551C 275.091,491.099 296.591,431.265 318,371.5C 319.731,368.698 321.898,368.031 324.5,369.5 Z"/></g>
<g><path style="opacity:1" fill="#6360fe" d="M 455.5,369.5 C 456.499,426.664 456.832,483.998 456.5,541.5C 461.263,541.226 465.93,541.559 470.5,542.5C 470.789,546.106 470.456,549.606 469.5,553C 461.507,553.5 453.507,553.666 445.5,553.5C 445.333,492.166 445.5,430.832 446,369.5C 449.165,368.208 452.332,368.208 455.5,369.5 Z"/></g>
<g><path style="opacity:1" fill="#6560fd" d="M 626.5,368.5 C 627.496,426.095 627.829,483.762 627.5,541.5C 662.543,541.18 697.543,541.513 732.5,542.5C 732.789,546.106 732.456,549.606 731.5,553C 692.929,553.83 654.429,553.663 616,552.5C 615.333,491.833 615.333,431.167 616,370.5C 616.5,370 617,369.5 617.5,369C 620.482,368.502 623.482,368.335 626.5,368.5 Z"/></g>
<g><path style="opacity:1" fill="#f23a9f" d="M 742.5,370.5 C 742.5,373.833 742.5,377.167 742.5,380.5C 738.731,380.244 735.064,380.577 731.5,381.5C 708.575,380.511 685.575,380.178 662.5,380.5C 662.167,380.5 661.833,380.5 661.5,380.5C 661.5,376.833 661.5,373.167 661.5,369.5C 688.574,369.176 715.574,369.509 742.5,370.5 Z"/></g>
<g><path style="opacity:1" fill="#6260fe" d="M 776.5,368.5 C 778.483,426.019 779.149,483.686 778.5,541.5C 782.931,541.231 787.265,541.564 791.5,542.5C 791.789,546.106 791.456,549.606 790.5,553C 782.92,553.813 775.42,553.647 768,552.5C 767.333,491.5 767.333,430.5 768,369.5C 770.719,368.556 773.552,368.223 776.5,368.5 Z"/></g>
<g><path style="opacity:1" fill="#625dfe" d="M 897.5,368.5 C 898.105,370.026 899.271,371.026 901,371.5C 901.5,406.165 901.667,440.832 901.5,475.5C 898.578,471.399 895.411,467.399 892,463.5C 890.687,461.688 890.187,460.021 890.5,458.5C 890.333,429.165 890.5,399.831 891,370.5C 892.754,368.75 894.921,368.083 897.5,368.5 Z"/></g>
<g><path style="opacity:0.951" fill="#6a5ffa" d="M 967.5,368.5 C 968.183,370.176 969.517,370.843 971.5,370.5C 971.5,427.5 971.5,484.5 971.5,541.5C 998.195,541.915 1024.86,541.415 1051.5,540C 1065.65,538.008 1078.65,533.175 1090.5,525.5C 1090.5,526.167 1090.5,526.833 1090.5,527.5C 1078.43,539.934 1063.76,547.767 1046.5,551C 1042.13,551.421 1037.79,552.088 1033.5,553C 1008.93,553.827 984.428,553.661 960,552.5C 959.167,491.497 959.333,430.497 960.5,369.5C 962.747,368.626 965.08,368.292 967.5,368.5 Z"/></g>
<g><path style="opacity:1" fill="#9d50d7" d="M 897.5,368.5 C 898.959,368.433 900.292,368.766 901.5,369.5C 902.498,405.329 902.832,441.329 902.5,477.5C 901.662,477.158 901.328,476.492 901.5,475.5C 901.667,440.832 901.5,406.165 901,371.5C 899.271,371.026 898.105,370.026 897.5,368.5 Z"/></g>
<g><path style="opacity:1" fill="#f53a9c" d="M 375.5,466.5 C 367.236,440.709 358.57,415.042 349.5,389.5C 350.849,382.784 353.183,376.451 356.5,370.5C 357.086,370.709 357.586,371.043 358,371.5C 368.645,403.102 379.478,434.602 390.5,466C 385.511,466.499 380.511,466.666 375.5,466.5 Z"/></g>
<g><path style="opacity:1" fill="#adadfe" d="M 490.5,379.5 C 490.833,379.5 491.167,379.5 491.5,379.5C 491.5,382.833 491.5,386.167 491.5,389.5C 493.099,389.232 494.432,389.566 495.5,390.5C 494.5,390.5 493.5,390.5 492.5,390.5C 490.586,387.316 489.92,383.649 490.5,379.5 Z"/></g>
<g><path style="opacity:0.999" fill="#6460fd" d="M 491.5,379.5 C 503.171,379.333 514.838,379.5 526.5,380C 536.72,380.178 545.22,384.011 552,391.5C 557.486,404.252 557.986,417.252 553.5,430.5C 550.582,432.693 547.248,433.693 543.5,433.5C 547.381,420.403 545.047,408.57 536.5,398C 523.63,391.631 509.964,389.131 495.5,390.5C 494.432,389.566 493.099,389.232 491.5,389.5C 491.5,386.167 491.5,382.833 491.5,379.5 Z"/></g>
<g><path style="opacity:1" fill="#6560fd" d="M 1005.5,379.5 C 1017.17,379.333 1028.84,379.5 1040.5,380C 1064.23,381.271 1081.4,392.437 1092,413.5C 1102.13,442.366 1100.3,470.366 1086.5,497.5C 1084.53,498.823 1082.53,500.156 1080.5,501.5C 1079.82,501.137 1079.15,500.804 1078.5,500.5C 1086.17,482.289 1088.67,463.289 1086,443.5C 1083.12,421.188 1071.62,405.354 1051.5,396C 1037.18,391.447 1022.51,389.613 1007.5,390.5C 1005.59,387.316 1004.92,383.649 1005.5,379.5 Z"/></g>
<g><path style="opacity:1" fill="#615ffe" d="M 662.5,380.5 C 685.575,380.178 708.575,380.511 731.5,381.5C 731.5,384.167 731.5,386.833 731.5,389.5C 708.5,389.5 685.5,389.5 662.5,389.5C 662.5,386.5 662.5,383.5 662.5,380.5 Z"/></g>
<g><path style="opacity:0.691" fill="#716ffe" d="M 661.5,380.5 C 661.833,380.5 662.167,380.5 662.5,380.5C 662.5,383.5 662.5,386.5 662.5,389.5C 685.5,389.5 708.5,389.5 731.5,389.5C 731.389,390.117 731.056,390.617 730.5,391C 709.169,391.5 687.836,391.667 666.5,391.5C 665.081,390.549 663.415,390.216 661.5,390.5C 661.5,387.167 661.5,383.833 661.5,380.5 Z"/></g>
<g><path style="opacity:1" fill="#f5369b" d="M 925.5,532.5 C 925.5,535.833 925.5,539.167 925.5,542.5C 922.167,542.5 918.833,542.5 915.5,542.5C 911.21,541.889 906.877,541.222 902.5,540.5C 872.831,498.18 842.831,456.18 812.5,414.5C 812.334,405.827 812.5,397.16 813,388.5C 846.746,435.658 880.246,482.991 913.5,530.5C 917.541,531.227 921.541,531.894 925.5,532.5 Z"/></g>
<g><path style="opacity:0.998" fill="#6661fd" d="M 349.5,389.5 C 358.57,415.042 367.236,440.709 375.5,466.5C 369.642,466.822 363.975,466.489 358.5,465.5C 359.376,465.631 360.043,465.298 360.5,464.5C 354.703,448.973 349.37,433.306 344.5,417.5C 344.058,413.846 343.724,410.179 343.5,406.5C 344.731,400.468 346.731,394.801 349.5,389.5 Z"/></g>
<g><path style="opacity:0.412" fill="#9a99fd" d="M 343.5,406.5 C 343.724,410.179 344.058,413.846 344.5,417.5C 343.313,415.928 342.313,414.261 341.5,412.5C 341.595,410.214 342.262,408.214 343.5,406.5 Z"/></g>
<g><path style="opacity:1" fill="#6460fd" d="M 812.5,414.5 C 842.831,456.18 872.831,498.18 902.5,540.5C 906.877,541.222 911.21,541.889 915.5,542.5C 915.789,546.106 915.456,549.606 914.5,553C 907.167,553.667 899.833,553.667 892.5,553C 866.945,517.778 841.778,482.278 817,446.5C 815.961,445.29 814.794,444.29 813.5,443.5C 812.608,433.866 812.275,424.199 812.5,414.5 Z"/></g>
<g><path style="opacity:1" fill="#f89fcf" d="M 1107.5,420.5 C 1108.94,426.1 1109.61,431.933 1109.5,438C 1109.5,441.683 1109.17,445.183 1108.5,448.5C 1108.57,439.148 1108.23,429.815 1107.5,420.5 Z"/></g>
<g><path style="opacity:1" fill="#f644a4" d="M 570.5,444.5 C 567.23,449.44 563.23,453.773 558.5,457.5C 558.631,456.624 558.298,455.957 557.5,455.5C 555.261,456.788 552.928,457.788 550.5,458.5C 549.069,456.563 547.402,454.73 545.5,453C 554.21,451.279 562.377,448.112 570,443.5C 570.399,443.728 570.565,444.062 570.5,444.5 Z"/></g>
<g><path style="opacity:1" fill="#f66db7" d="M 735.5,449.5 C 711.167,449.5 686.833,449.5 662.5,449.5C 662.5,452.833 662.5,456.167 662.5,459.5C 662.167,459.5 661.833,459.5 661.5,459.5C 661.5,455.833 661.5,452.167 661.5,448.5C 686.339,448.169 711.006,448.502 735.5,449.5 Z"/></g>
<g><path style="opacity:1" fill="#f4349c" d="M 735.5,449.5 C 736.167,449.5 736.833,449.5 737.5,449.5C 737.665,452.518 737.498,455.518 737,458.5C 734.865,460.278 732.365,460.945 729.5,460.5C 707.34,459.503 685.006,459.169 662.5,459.5C 662.5,456.167 662.5,452.833 662.5,449.5C 686.833,449.5 711.167,449.5 735.5,449.5 Z"/></g>
<g><path style="opacity:1" fill="#f5369c" d="M 491.5,457.5 C 501.839,457.334 512.172,457.5 522.5,458C 541.379,482.257 560.379,506.424 579.5,530.5C 583.982,531.167 588.316,531.834 592.5,532.5C 595.022,535.369 596.689,538.703 597.5,542.5C 592.167,542.5 586.833,542.5 581.5,542.5C 577.149,542.031 572.816,541.364 568.5,540.5C 549.643,516.81 530.976,492.977 512.5,469C 505.508,468.5 498.508,468.334 491.5,468.5C 491.5,464.833 491.5,461.167 491.5,457.5 Z"/></g>
<g><path style="opacity:1" fill="#8068f9" d="M 558.5,457.5 C 557.5,459.167 556.167,460.5 554.5,461.5C 552.596,461.262 551.262,460.262 550.5,458.5C 552.928,457.788 555.261,456.788 557.5,455.5C 558.298,455.957 558.631,456.624 558.5,457.5 Z"/></g>
<g><path style="opacity:0.997" fill="#6361fe" d="M 661.5,459.5 C 661.833,459.5 662.167,459.5 662.5,459.5C 685.006,459.169 707.34,459.503 729.5,460.5C 728.5,460.5 727.5,460.5 726.5,460.5C 726.665,463.518 726.498,466.518 726,469.5C 725.5,470 725,470.5 724.5,471C 704.169,471.5 683.836,471.667 663.5,471.5C 661.657,467.813 660.99,463.813 661.5,459.5 Z"/></g>
<g><path style="opacity:1" fill="#c8a5ed" d="M 491.5,457.5 C 491.5,461.167 491.5,464.833 491.5,468.5C 491.253,471.939 491.586,475.272 492.5,478.5C 491.179,475.402 490.512,471.902 490.5,468C 490.501,464.317 490.835,460.817 491.5,457.5 Z"/></g>
<g><path style="opacity:1" fill="#6560fd" d="M 491.5,468.5 C 498.508,468.334 505.508,468.5 512.5,469C 530.976,492.977 549.643,516.81 568.5,540.5C 572.816,541.364 577.149,542.031 581.5,542.5C 583.448,545.464 585.448,548.464 587.5,551.5C 587.291,552.086 586.957,552.586 586.5,553C 577.167,553.667 567.833,553.667 558.5,553C 538.786,528.955 519.453,504.621 500.5,480C 497.854,479.503 495.187,479.336 492.5,479.5C 492.5,479.167 492.5,478.833 492.5,478.5C 491.586,475.272 491.253,471.939 491.5,468.5 Z"/></g>
<g><path style="opacity:1" fill="#f4389d" d="M 424.5,532.5 C 425.958,535.39 426.791,538.39 427,541.5C 422.934,542.464 418.767,542.797 414.5,542.5C 410.232,541.627 405.898,541.294 401.5,541.5C 396.93,526.526 391.93,511.693 386.5,497C 361.836,496.5 337.169,496.333 312.5,496.5C 312.792,492.793 313.792,489.293 315.5,486C 342.5,485.333 369.5,485.333 396.5,486C 402.307,500.582 407.64,515.415 412.5,530.5C 416.541,531.227 420.541,531.894 424.5,532.5 Z"/></g>
<g><path style="opacity:1" fill="#6460fd" d="M 312.5,496.5 C 337.169,496.333 361.836,496.5 386.5,497C 391.93,511.693 396.93,526.526 401.5,541.5C 405.898,541.294 410.232,541.627 414.5,542.5C 414.955,545.203 415.622,547.87 416.5,550.5C 416.392,551.442 416.059,552.275 415.5,553C 407.147,553.832 398.813,553.665 390.5,552.5C 385.023,537.562 380.023,522.562 375.5,507.5C 354.167,507.5 332.833,507.5 311.5,507.5C 310.791,506.596 309.791,506.263 308.5,506.5C 309.263,502.863 310.597,499.53 312.5,496.5 Z"/></g>
<g><path style="opacity:0.09" fill="#f96fc4" d="M 1103.5,514.5 C 1099.5,519.167 1095.17,523.5 1090.5,527.5C 1090.5,526.833 1090.5,526.167 1090.5,525.5C 1093.27,523.233 1095.94,520.733 1098.5,518C 1098.27,517.601 1097.94,517.435 1097.5,517.5C 1099.12,516.221 1100.79,514.887 1102.5,513.5C 1103.11,513.624 1103.44,513.957 1103.5,514.5 Z"/></g>
</svg>
