<?xml version="1.0" encoding="UTF-8"?>
<!DOCTYPE svg PUBLIC "-//W3C//DTD SVG 1.1//EN" "http://www.w3.org/Graphics/SVG/1.1/DTD/svg11.dtd">
<svg xmlns="http://www.w3.org/2000/svg" version="1.1" width="1280px" height="640px" style="shape-rendering:geometricPrecision; text-rendering:geometricPrecision; image-rendering:optimizeQuality; fill-rule:evenodd; clip-rule:evenodd" xmlns:xlink="http://www.w3.org/1999/xlink">
<g><path style="opacity:1" fill="#f7f9fc" d="M 259.5,173.5 C 241.903,163.623 223.236,160.789 203.5,165C 199.403,166.922 197.07,170.088 196.5,174.5C 195.111,177.883 195.778,180.883 198.5,183.5C 198.5,184.167 198.833,184.5 199.5,184.5C 201.734,186.89 204.401,188.724 207.5,190C 223.246,194.752 238.746,200.252 254,206.5C 258.156,208.999 262.323,211.499 266.5,214C 269.101,217.112 272.101,219.612 275.5,221.5C 278.195,228.926 280.361,236.592 282,244.5C 282.907,254.651 282.074,264.651 279.5,274.5C 278.159,280.352 275.659,285.685 272,290.5C 267.911,294.759 263.745,298.759 259.5,302.5C 259.12,301.867 258.787,301.2 258.5,300.5C 242.714,308.653 225.881,312.319 208,311.5C 185.698,311.645 164.198,307.645 143.5,299.5C 143.167,298.333 142.833,297.167 142.5,296C 143.679,287.203 144.345,278.369 144.5,269.5C 144.5,269.167 144.5,268.833 144.5,268.5C 144.593,263.425 145.259,258.425 146.5,253.5C 162.837,261.918 180.17,266.918 198.5,268.5C 204.037,269.762 209.703,269.762 215.5,268.5C 226.431,263.155 228.765,255.321 222.5,245C 219.833,243.333 217.167,241.667 214.5,240C 196.594,235.192 179.26,228.858 162.5,221C 146.383,210.435 138.717,195.435 139.5,176C 139.252,165.824 141.586,156.324 146.5,147.5C 148.557,145.957 148.557,144.957 146.5,144.5C 156.428,131.024 169.761,122.858 186.5,120C 205.258,117.931 223.924,118.598 242.5,122C 252.582,124.851 262.582,127.685 272.5,130.5C 271.574,146.169 270.574,161.836 269.5,177.5C 265.707,177.269 262.374,175.935 259.5,173.5 Z"/></g>
<g><path style="opacity:1" fill="#f7f9fc" d="M 491.5,199.5 C 491.5,210.5 491.5,221.5 491.5,232.5C 487.714,259.076 475.381,280.743 454.5,297.5C 454.12,296.867 453.787,296.2 453.5,295.5C 442.323,303.172 429.99,308.006 416.5,310C 392.775,313.907 369.775,311.573 347.5,303C 323.705,291.531 308.205,273.031 301,247.5C 291.905,215.757 295.738,185.757 312.5,157.5C 315.187,155.606 315.187,154.939 312.5,155.5C 332.517,129.916 359.017,117.582 392,118.5C 447.88,117.9 481.047,144.9 491.5,199.5 Z M 407.5,265.5 C 380.754,271.038 363.254,260.704 355,234.5C 351.69,219.256 352.69,204.256 358,189.5C 358.708,188.619 359.542,187.953 360.5,187.5C 387.163,182.287 403.996,192.954 411,219.5C 414.774,235.235 413.608,250.568 407.5,265.5 Z"/></g>
<g><path style="opacity:1" fill="#f8f9fc" d="M 629.5,168.5 C 608.546,167.523 587.546,167.189 566.5,167.5C 565.167,175.167 565.167,182.833 566.5,190.5C 566.261,192.467 566.594,194.301 567.5,196C 590.507,196.167 613.507,196.667 636.5,197.5C 637.649,211.455 637.816,225.455 637,239.5C 633.17,240.199 629.337,240.866 625.5,241.5C 625.082,240.778 624.416,240.278 623.5,240C 604.503,239.5 585.503,239.333 566.5,239.5C 565.167,247.5 565.167,255.5 566.5,263.5C 566.667,278.504 566.5,293.504 566,308.5C 562.943,309.451 559.777,309.784 556.5,309.5C 555.833,309.5 555.5,309.167 555.5,308.5C 542.01,307.504 528.344,307.171 514.5,307.5C 514.832,249.998 514.499,192.664 513.5,135.5C 512.005,135.011 510.671,134.345 509.5,133.5C 510.5,133.5 511.5,133.5 512.5,133.5C 512.211,129.894 512.544,126.394 513.5,123C 555.504,122.167 597.504,122.333 639.5,123.5C 640.65,138.122 640.816,152.788 640,167.5C 636.606,168.456 633.106,168.789 629.5,168.5 Z"/></g>
<g><path style="opacity:1" fill="#f8fafc" d="M 709.5,309.5 C 708.833,309.167 708.167,308.833 707.5,308.5C 693.677,307.504 679.677,307.171 665.5,307.5C 665.832,249.998 665.499,192.664 664.5,135.5C 663.5,134.833 662.5,134.167 661.5,133.5C 663.171,130.392 664.171,126.892 664.5,123C 683.074,122.175 701.574,122.341 720,123.5C 720.667,185.167 720.667,246.833 720,308.5C 716.606,309.456 713.106,309.789 709.5,309.5 Z"/></g>
<g><path style="opacity:1" fill="#f7f9fc" d="M 909.5,309.5 C 895.215,308.534 880.882,308.2 866.5,308.5C 864.048,297.128 861.382,285.795 858.5,274.5C 839.512,273.5 820.512,273.167 801.5,273.5C 800.833,277.167 800.167,280.833 799.5,284.5C 797.926,287.907 796.926,291.573 796.5,295.5C 797.791,295.263 798.791,295.596 799.5,296.5C 798.504,296.414 797.671,296.748 797,297.5C 795.933,301.581 794.433,305.247 792.5,308.5C 775.244,307.515 757.91,307.181 740.5,307.5C 757.622,250.132 774.955,192.799 792.5,135.5C 792.5,134.833 792.5,134.167 792.5,133.5C 793.525,129.835 794.859,126.335 796.5,123C 819.739,122.173 842.906,122.34 866,123.5C 884.209,182.884 902.542,242.217 921,301.5C 921.769,304.099 921.602,306.599 920.5,309C 916.848,309.499 913.182,309.665 909.5,309.5 Z M 816.5,219.5 C 818.073,223.641 819.407,227.974 820.5,232.5C 819.311,233.429 817.978,233.762 816.5,233.5C 815.5,233.5 814.5,233.5 813.5,233.5C 813.717,228.553 814.717,223.886 816.5,219.5 Z"/></g>
<g><path style="opacity:0.176" fill="#b0afff" d="M 792.5,133.5 C 792.5,134.167 792.5,134.833 792.5,135.5C 789.589,134.017 786.922,134.35 784.5,136.5C 784.414,135.504 784.748,134.671 785.5,134C 787.81,133.503 790.143,133.337 792.5,133.5 Z"/></g>
<g><path style="opacity:1" fill="#6160fe" d="M 509.5,133.5 C 510.671,134.345 512.005,135.011 513.5,135.5C 513.5,193.167 513.5,250.833 513.5,308.5C 527.5,308.5 541.5,308.5 555.5,308.5C 555.5,309.167 555.833,309.5 556.5,309.5C 556.5,312.833 556.5,316.167 556.5,319.5C 552.833,319.5 549.167,319.5 545.5,319.5C 531.579,318.518 517.579,318.185 503.5,318.5C 503.832,260.664 503.499,202.998 502.5,145.5C 501.167,144.833 499.833,144.167 498.5,143.5C 499.833,143.5 501.167,143.5 502.5,143.5C 502.5,140.167 502.5,136.833 502.5,133.5C 504.833,133.5 507.167,133.5 509.5,133.5 Z"/></g>
<g><path style="opacity:1" fill="#6160fe" d="M 661.5,133.5 C 662.5,134.167 663.5,134.833 664.5,135.5C 664.5,193.167 664.5,250.833 664.5,308.5C 678.833,308.5 693.167,308.5 707.5,308.5C 708.167,308.833 708.833,309.167 709.5,309.5C 709.5,312.833 709.5,316.167 709.5,319.5C 705.833,319.5 702.167,319.5 698.5,319.5C 683.912,318.517 669.245,318.184 654.5,318.5C 654.5,260.5 654.5,202.5 654.5,144.5C 653.167,144.5 651.833,144.5 650.5,144.5C 650.5,144.167 650.5,143.833 650.5,143.5C 651.5,143.5 652.5,143.5 653.5,143.5C 653.18,140.102 653.513,136.768 654.5,133.5C 656.655,133.162 658.989,133.162 661.5,133.5 Z"/></g>
<g><path style="opacity:1" fill="#acaefd" d="M 664.5,135.5 C 665.499,192.664 665.832,249.998 665.5,307.5C 679.677,307.171 693.677,307.504 707.5,308.5C 693.167,308.5 678.833,308.5 664.5,308.5C 664.5,250.833 664.5,193.167 664.5,135.5 Z"/></g>
<g><path style="opacity:1" fill="#6760fc" d="M 792.5,135.5 C 774.955,192.799 757.622,250.132 740.5,307.5C 755.402,308.182 770.402,308.848 785.5,309.5C 786.097,317.059 782.764,320.392 775.5,319.5C 774.833,319.5 774.167,319.5 773.5,319.5C 758.638,319.161 743.972,318.161 729.5,316.5C 747.247,259.594 764.581,202.594 781.5,145.5C 781.5,144.833 781.5,144.167 781.5,143.5C 782.869,141.309 783.869,138.975 784.5,136.5C 786.922,134.35 789.589,134.017 792.5,135.5 Z"/></g>
<g><path style="opacity:1" fill="#b8bafd" d="M 513.5,135.5 C 514.499,192.664 514.832,249.998 514.5,307.5C 528.344,307.171 542.01,307.504 555.5,308.5C 541.5,308.5 527.5,308.5 513.5,308.5C 513.5,250.833 513.5,193.167 513.5,135.5 Z"/></g>
<g><path style="opacity:0.549" fill="#e441d1" d="M 781.5,143.5 C 781.5,144.167 781.5,144.833 781.5,145.5C 778.721,145.279 776.054,145.612 773.5,146.5C 773.577,145.25 774.244,144.417 775.5,144C 777.473,143.505 779.473,143.338 781.5,143.5 Z"/></g>
<g><path style="opacity:1" fill="#f2349c" d="M 502.5,145.5 C 503.499,202.998 503.832,260.664 503.5,318.5C 516.656,319.496 529.99,319.829 543.5,319.5C 543.5,322.5 543.5,325.5 543.5,328.5C 526.833,328.5 510.167,328.5 493.5,328.5C 493.5,267.5 493.5,206.5 493.5,145.5C 496.5,145.5 499.5,145.5 502.5,145.5 Z"/></g>
<g><path style="opacity:0.997" fill="#f4339a" d="M 647.5,143.5 C 648.5,143.5 649.5,143.5 650.5,143.5C 650.5,143.833 650.5,144.167 650.5,144.5C 651.209,145.404 652.209,145.737 653.5,145.5C 653.168,203.336 653.501,261.002 654.5,318.5C 669.245,318.184 683.912,318.517 698.5,319.5C 698.5,322.5 698.5,325.5 698.5,328.5C 679.833,328.5 661.167,328.5 642.5,328.5C 642.5,274.833 642.5,221.167 642.5,167.5C 643.167,160.322 643.833,152.989 644.5,145.5C 645.739,145.058 646.739,144.391 647.5,143.5 Z"/></g>
<g><path style="opacity:1" fill="#f6359d" d="M 781.5,145.5 C 764.581,202.594 747.247,259.594 729.5,316.5C 728.596,317.209 728.263,318.209 728.5,319.5C 743.5,319.5 758.5,319.5 773.5,319.5C 774.167,319.5 774.833,319.5 775.5,319.5C 774.229,322.343 773.396,325.343 773,328.5C 772.617,329.056 772.117,329.389 771.5,329.5C 753.674,328.503 735.674,328.17 717.5,328.5C 736.294,267.851 754.961,207.184 773.5,146.5C 776.054,145.612 778.721,145.279 781.5,145.5 Z"/></g>
<g><path style="opacity:1" fill="#d03eb3" d="M 650.5,144.5 C 651.833,144.5 653.167,144.5 654.5,144.5C 654.5,202.5 654.5,260.5 654.5,318.5C 653.501,261.002 653.168,203.336 653.5,145.5C 652.209,145.737 651.209,145.404 650.5,144.5 Z"/></g>
<g><path style="opacity:0.651" fill="#aeacff" d="M 146.5,144.5 C 148.557,144.957 148.557,145.957 146.5,147.5C 146.565,147.062 146.399,146.728 146,146.5C 144.549,148.464 142.716,149.797 140.5,150.5C 142.118,148.215 144.118,146.215 146.5,144.5 Z"/></g>
<g><path style="opacity:1" fill="#6660fd" d="M 146.5,147.5 C 141.586,156.324 139.252,165.824 139.5,176C 138.717,195.435 146.383,210.435 162.5,221C 179.26,228.858 196.594,235.192 214.5,240C 217.167,241.667 219.833,243.333 222.5,245C 228.765,255.321 226.431,263.155 215.5,268.5C 216.521,261.377 213.854,256.21 207.5,253C 203.833,251.333 200.167,249.667 196.5,248C 179.144,243.998 162.811,237.665 147.5,229C 136.572,220.988 130.405,210.155 129,196.5C 127.291,182.509 129.791,169.342 136.5,157C 135.423,156.53 134.423,156.697 133.5,157.5C 135.452,154.882 137.785,152.548 140.5,150.5C 142.716,149.797 144.549,148.464 146,146.5C 146.399,146.728 146.565,147.062 146.5,147.5 Z"/></g>
<g><path style="opacity:0.195" fill="#f491c8" d="M 647.5,143.5 C 646.739,144.391 645.739,145.058 644.5,145.5C 643.833,152.989 643.167,160.322 642.5,167.5C 642.169,159.804 642.503,152.138 643.5,144.5C 644.736,143.754 646.07,143.421 647.5,143.5 Z"/></g>
<g><path style="opacity:0.988" fill="#b6b4ff" d="M 312.5,157.5 C 311.833,157.5 311.167,157.5 310.5,157.5C 310.5,156.167 311.167,155.5 312.5,155.5C 315.187,154.939 315.187,155.606 312.5,157.5 Z"/></g>
<g><path style="opacity:1" fill="#f6349d" d="M 215.5,268.5 C 209.703,269.762 204.037,269.762 198.5,268.5C 199.239,268.631 199.906,268.464 200.5,268C 196.489,264.778 192.156,262.111 187.5,260C 169.955,255.957 153.289,249.79 137.5,241.5C 120.249,227.227 113.749,208.894 118,186.5C 119.667,174.741 124.833,165.075 133.5,157.5C 134.423,156.697 135.423,156.53 136.5,157C 129.791,169.342 127.291,182.509 129,196.5C 130.405,210.155 136.572,220.988 147.5,229C 162.811,237.665 179.144,243.998 196.5,248C 200.167,249.667 203.833,251.333 207.5,253C 213.854,256.21 216.521,261.377 215.5,268.5 Z"/></g>
<g><path style="opacity:1" fill="#6860fd" d="M 259.5,173.5 C 258.947,178.482 258.613,183.482 258.5,188.5C 255.519,188.818 253.185,187.818 251.5,185.5C 250.232,183.953 248.565,182.953 246.5,182.5C 230.526,175.282 213.86,172.615 196.5,174.5C 197.07,170.088 199.403,166.922 203.5,165C 223.236,160.789 241.903,163.623 259.5,173.5 Z"/></g>
<g><path style="opacity:1" fill="#6861fc" d="M 310.5,157.5 C 311.167,157.5 311.833,157.5 312.5,157.5C 295.738,185.757 291.905,215.757 301,247.5C 308.205,273.031 323.705,291.531 347.5,303C 369.775,311.573 392.775,313.907 416.5,310C 429.99,308.006 442.323,303.172 453.5,295.5C 453.787,296.2 454.12,296.867 454.5,297.5C 451.833,300.167 449.167,302.833 446.5,305.5C 445.883,305.389 445.383,305.056 445,304.5C 443.035,306.55 440.868,308.217 438.5,309.5C 415.581,321.325 391.248,325.491 365.5,322C 317.639,313.469 291.139,284.969 286,236.5C 283.889,210.743 289.556,187.077 303,165.5C 302.184,166.823 301.017,167.489 299.5,167.5C 302.563,163.434 306.229,160.101 310.5,157.5 Z"/></g>
<g><path style="opacity:1" fill="#6661fd" d="M 415.5,261.5 C 427.272,238.586 427.438,215.586 416,192.5C 402.333,173.873 384.833,169.207 363.5,178.5C 374.639,164.423 388.972,159.923 406.5,165C 423.192,172.851 432.692,186.018 435,204.5C 437.118,223.025 433.118,240.025 423,255.5C 420.894,258.118 418.394,260.118 415.5,261.5 Z"/></g>
<g><path style="opacity:1" fill="#6761fd" d="M 566.5,167.5 C 587.546,167.189 608.546,167.523 629.5,168.5C 629.5,172.167 629.5,175.833 629.5,179.5C 625.833,179.5 622.167,179.5 618.5,179.5C 601.244,178.515 583.91,178.181 566.5,178.5C 566.5,174.833 566.5,171.167 566.5,167.5 Z"/></g>
<g><path style="opacity:1" fill="#6662fe" d="M 834.5,234.5 C 831.579,219.299 827.912,204.299 823.5,189.5C 824.889,182.828 826.389,176.161 828,169.5C 829.356,168.62 830.856,168.286 832.5,168.5C 837.833,190.492 843.166,212.492 848.5,234.5C 843.833,234.5 839.167,234.5 834.5,234.5 Z"/></g>
<g><path style="opacity:1" fill="#f5359c" d="M 438.5,309.5 C 439.338,309.842 439.672,310.508 439.5,311.5C 416.005,328.378 389.671,335.211 360.5,332C 331.03,329.454 307.697,316.954 290.5,294.5C 289.115,293.426 287.949,292.093 287,290.5C 284.195,285.227 281.695,279.894 279.5,274.5C 282.074,264.651 282.907,254.651 282,244.5C 280.361,236.592 278.195,228.926 275.5,221.5C 277.552,200.74 285.552,182.74 299.5,167.5C 301.017,167.489 302.184,166.823 303,165.5C 289.556,187.077 283.889,210.743 286,236.5C 291.139,284.969 317.639,313.469 365.5,322C 391.248,325.491 415.581,321.325 438.5,309.5 Z"/></g>
<g><path style="opacity:1" fill="#f5349b" d="M 246.5,182.5 C 246.5,187.167 246.5,191.833 246.5,196.5C 238.244,193.382 229.91,190.215 221.5,187C 214.012,184.602 206.345,183.435 198.5,183.5C 195.778,180.883 195.111,177.883 196.5,174.5C 213.86,172.615 230.526,175.282 246.5,182.5 Z"/></g>
<g><path style="opacity:1" fill="#f5359d" d="M 415.5,261.5 C 413.421,263.873 410.754,265.206 407.5,265.5C 413.608,250.568 414.774,235.235 411,219.5C 403.996,192.954 387.163,182.287 360.5,187.5C 359.909,186.849 359.243,186.182 358.5,185.5C 359.943,182.923 361.61,180.59 363.5,178.5C 384.833,169.207 402.333,173.873 416,192.5C 427.438,215.586 427.272,238.586 415.5,261.5 Z"/></g>
<g><path style="opacity:1" fill="#eab6e3" d="M 566.5,167.5 C 566.5,171.167 566.5,174.833 566.5,178.5C 566.5,182.167 566.5,185.833 566.5,189.5C 567.791,189.263 568.791,189.596 569.5,190.5C 568.5,190.5 567.5,190.5 566.5,190.5C 565.167,182.833 565.167,175.167 566.5,167.5 Z"/></g>
<g><path style="opacity:1" fill="#f7349c" d="M 566.5,178.5 C 583.91,178.181 601.244,178.515 618.5,179.5C 618.789,183.106 618.456,186.606 617.5,190C 601.503,190.5 585.503,190.667 569.5,190.5C 568.791,189.596 567.791,189.263 566.5,189.5C 566.5,185.833 566.5,182.167 566.5,178.5 Z"/></g>
<g><path style="opacity:0.516" fill="#fb48b5" d="M 246.5,182.5 C 248.565,182.953 250.232,183.953 251.5,185.5C 250.504,185.586 249.671,185.252 249,184.5C 248.664,189.532 248.164,194.532 247.5,199.5C 232.36,192.043 216.36,187.043 199.5,184.5C 198.833,184.5 198.5,184.167 198.5,183.5C 206.345,183.435 214.012,184.602 221.5,187C 229.91,190.215 238.244,193.382 246.5,196.5C 246.5,191.833 246.5,187.167 246.5,182.5 Z"/></g>
<g><path style="opacity:1" fill="#f53a9f" d="M 823.5,189.5 C 827.912,204.299 831.579,219.299 834.5,234.5C 828.31,234.823 822.31,234.49 816.5,233.5C 817.978,233.762 819.311,233.429 820.5,232.5C 819.407,227.974 818.073,223.641 816.5,219.5C 817.644,209.103 819.977,199.103 823.5,189.5 Z"/></g>
<g><path style="opacity:1" fill="#6662fe" d="M 566.5,239.5 C 585.503,239.333 604.503,239.5 623.5,240C 624.416,240.278 625.082,240.778 625.5,241.5C 625.665,244.518 625.498,247.518 625,250.5C 621.943,251.451 618.777,251.784 615.5,251.5C 599.214,250.529 582.881,250.196 566.5,250.5C 566.5,246.833 566.5,243.167 566.5,239.5 Z"/></g>
<g><path style="opacity:0.999" fill="#eabee8" d="M 566.5,239.5 C 566.5,243.167 566.5,246.833 566.5,250.5C 565.92,254.649 566.586,258.316 568.5,261.5C 568.167,262.5 567.5,263.167 566.5,263.5C 565.167,255.5 565.167,247.5 566.5,239.5 Z"/></g>
<g><path style="opacity:1" fill="#f5349d" d="M 566.5,250.5 C 582.881,250.196 599.214,250.529 615.5,251.5C 615.5,254.833 615.5,258.167 615.5,261.5C 599.833,261.5 584.167,261.5 568.5,261.5C 566.586,258.316 565.92,254.649 566.5,250.5 Z"/></g>
<g><path style="opacity:1" fill="#6761fd" d="M 134.5,266.5 C 138.007,266.92 141.341,267.92 144.5,269.5C 144.345,278.369 143.679,287.203 142.5,296C 142.833,297.167 143.167,298.333 143.5,299.5C 164.198,307.645 185.698,311.645 208,311.5C 225.881,312.319 242.714,308.653 258.5,300.5C 258.787,301.2 259.12,301.867 259.5,302.5C 256.369,306.542 252.702,309.875 248.5,312.5C 248.44,311.957 248.107,311.624 247.5,311.5C 236.721,317.926 225.055,321.426 212.5,322C 185.051,324.396 158.551,320.563 133,310.5C 132.567,302.491 132.734,294.491 133.5,286.5C 134.833,283.5 134.833,280.5 133.5,277.5C 133.724,273.821 134.058,270.154 134.5,266.5 Z"/></g>
<g><path style="opacity:0.29" fill="#bab2ff" d="M 144.5,268.5 C 144.5,268.833 144.5,269.167 144.5,269.5C 141.341,267.92 138.007,266.92 134.5,266.5C 134.866,265.305 135.699,264.639 137,264.5C 139.575,265.743 142.075,267.076 144.5,268.5 Z"/></g>
<g><path style="opacity:1" fill="#6663fe" d="M 909.5,309.5 C 910.294,312.802 910.96,316.135 911.5,319.5C 907.167,319.5 902.833,319.5 898.5,319.5C 884.215,318.534 869.882,318.2 855.5,318.5C 853.098,307.241 850.431,296.074 847.5,285C 831.503,284.5 815.503,284.333 799.5,284.5C 800.167,280.833 800.833,277.167 801.5,273.5C 820.512,273.167 839.512,273.5 858.5,274.5C 861.382,285.795 864.048,297.128 866.5,308.5C 880.882,308.2 895.215,308.534 909.5,309.5 Z"/></g>
<g><path style="opacity:0.999" fill="#f6349e" d="M 133.5,286.5 C 132.734,294.491 132.567,302.491 133,310.5C 158.551,320.563 185.051,324.396 212.5,322C 225.055,321.426 236.721,317.926 247.5,311.5C 248.107,311.624 248.44,311.957 248.5,312.5C 246.015,317.15 242.348,320.65 237.5,323C 221.933,331.203 205.266,335.036 187.5,334.5C 164.508,333.976 142.341,329.642 121,321.5C 120.84,307.027 122.007,292.694 124.5,278.5C 130.938,277.227 133.938,279.893 133.5,286.5 Z"/></g>
<g><path style="opacity:1" fill="#c751cf" d="M 133.5,277.5 C 134.833,280.5 134.833,283.5 133.5,286.5C 133.938,279.893 130.938,277.227 124.5,278.5C 124.5,277.5 124.5,276.5 124.5,275.5C 127.126,276.422 129.793,277.422 132.5,278.5C 133.107,278.376 133.44,278.043 133.5,277.5 Z"/></g>
<g><path style="opacity:1" fill="#f5349c" d="M 799.5,284.5 C 815.503,284.333 831.503,284.5 847.5,285C 850.431,296.074 853.098,307.241 855.5,318.5C 869.882,318.2 884.215,318.534 898.5,319.5C 899.167,322.5 899.833,325.5 900.5,328.5C 881.764,329.146 863.264,328.479 845,326.5C 844.601,326.728 844.435,327.062 844.5,327.5C 840.884,317.535 838.218,307.202 836.5,296.5C 824.167,296.5 811.833,296.5 799.5,296.5C 798.791,295.596 797.791,295.263 796.5,295.5C 796.926,291.573 797.926,287.907 799.5,284.5 Z"/></g>
<g><path style="opacity:0.824" fill="#d449d1" d="M 446.5,305.5 C 444.786,308.213 442.453,310.213 439.5,311.5C 439.672,310.508 439.338,309.842 438.5,309.5C 440.868,308.217 443.035,306.55 445,304.5C 445.383,305.056 445.883,305.389 446.5,305.5 Z"/></g>
<g><path style="opacity:1" fill="#c9c9fd" d="M 740.5,307.5 C 757.91,307.181 775.244,307.515 792.5,308.5C 790.393,309.468 788.059,309.802 785.5,309.5C 770.402,308.848 755.402,308.182 740.5,307.5 Z"/></g>
<g><path style="opacity:1" fill="#c441bc" d="M 729.5,316.5 C 743.972,318.161 758.638,319.161 773.5,319.5C 758.5,319.5 743.5,319.5 728.5,319.5C 728.263,318.209 728.596,317.209 729.5,316.5 Z"/></g>
<g><path style="opacity:0.62" fill="#fe3aae" d="M 439.5,311.5 C 430.467,320.339 419.8,326.506 407.5,330C 377.535,337.717 348.535,335.384 320.5,323C 307.702,316.366 297.702,306.866 290.5,294.5C 307.697,316.954 331.03,329.454 360.5,332C 389.671,335.211 416.005,328.378 439.5,311.5 Z"/></g>
<g><path style="opacity:0.777" fill="#fa42b4" d="M 498.5,143.5 C 499.833,144.167 501.167,144.833 502.5,145.5C 499.5,145.5 496.5,145.5 493.5,145.5C 493.5,206.5 493.5,267.5 493.5,328.5C 510.167,328.5 526.833,328.5 543.5,328.5C 543.5,325.5 543.5,322.5 543.5,319.5C 529.99,319.829 516.656,319.496 503.5,318.5C 517.579,318.185 531.579,318.518 545.5,319.5C 545.789,323.106 545.456,326.606 544.5,330C 526.836,330.5 509.17,330.667 491.5,330.5C 491.5,297.833 491.5,265.167 491.5,232.5C 491.5,221.5 491.5,210.5 491.5,199.5C 491.167,181.155 491.5,162.821 492.5,144.5C 494.409,143.652 496.409,143.318 498.5,143.5 Z"/></g>
<g><path style="opacity:0.764" fill="#fe3fb6" d="M 717.5,328.5 C 735.674,328.17 753.674,328.503 771.5,329.5C 762.673,330.166 753.673,330.5 744.5,330.5C 735.141,330.498 726.141,329.832 717.5,328.5 Z"/></g>
<g><path style="opacity:0.739" fill="#ff3eb9" d="M 900.5,328.5 C 882.197,330.487 863.53,331.154 844.5,330.5C 844.5,329.5 844.5,328.5 844.5,327.5C 844.435,327.062 844.601,326.728 845,326.5C 863.264,328.479 881.764,329.146 900.5,328.5 Z"/></g>
<g><path style="opacity:0.104" fill="#ff3db5" d="M 642.5,328.5 C 661.167,328.5 679.833,328.5 698.5,328.5C 689.525,329.832 680.191,330.498 670.5,330.5C 660.809,330.498 651.475,329.832 642.5,328.5 Z"/></g>
<g><path style="opacity:1" fill="#f7f9fc" d="M 462.5,525.5 C 458.469,524.059 454.303,523.059 450,522.5C 445.261,508.117 440.428,493.784 435.5,479.5C 421.85,478.167 407.85,477.501 393.5,477.5C 379.329,477.5 365.329,477.833 351.5,478.5C 349.733,480.792 348.733,483.458 348.5,486.5C 347.662,486.842 347.328,487.508 347.5,488.5C 346.18,491.812 344.846,495.145 343.5,498.5C 343.957,499.298 344.624,499.631 345.5,499.5C 342.039,507.3 338.873,515.3 336,523.5C 333.509,524.22 331.009,524.887 328.5,525.5C 323.087,523.941 317.421,522.941 311.5,522.5C 332.306,465.721 352.973,408.887 373.5,352C 373.164,350.97 372.497,350.47 371.5,350.5C 371.5,349.833 371.5,349.167 371.5,348.5C 372.496,348.586 373.329,348.252 374,347.5C 375.115,344.105 376.615,340.939 378.5,338C 388.5,337.333 398.5,337.333 408.5,338C 409,338.5 409.5,339 410,339.5C 431.863,400.545 453.696,461.545 475.5,522.5C 475.291,523.086 474.957,523.586 474.5,524C 470.312,524.176 466.312,524.676 462.5,525.5 Z M 378.5,402.5 C 382.583,412.345 386.417,422.345 390,432.5C 392.063,440.463 394.563,448.297 397.5,456C 397.43,456.765 397.097,457.265 396.5,457.5C 384.167,457.5 371.833,457.5 359.5,457.5C 365.373,439.009 371.706,420.676 378.5,402.5 Z"/></g>
<g><path style="opacity:1" fill="#f8f9fc" d="M 610.5,436.5 C 609.85,436.196 609.183,435.863 608.5,435.5C 601.063,439.813 593.063,442.646 584.5,444C 585.998,446.664 587.998,448.83 590.5,450.5C 590.5,452.5 591.5,453.5 593.5,453.5C 611.484,476.317 629.65,498.983 648,521.5C 648.483,522.448 648.649,523.448 648.5,524.5C 642.642,524.178 636.975,524.511 631.5,525.5C 628.087,523.94 624.421,523.107 620.5,523C 600.925,498.515 581.592,473.848 562.5,449C 551.505,448.5 540.505,448.333 529.5,448.5C 529.5,452.167 529.5,455.833 529.5,459.5C 529.237,463.6 529.57,467.6 530.5,471.5C 530.667,488.837 530.5,506.17 530,523.5C 526.504,524.203 523.004,524.87 519.5,525.5C 519.389,524.883 519.056,524.383 518.5,524C 514.514,523.501 510.514,523.334 506.5,523.5C 506.5,465.833 506.5,408.167 506.5,350.5C 504.517,350.843 503.183,350.176 502.5,348.5C 503.5,348.5 504.5,348.5 505.5,348.5C 505.211,344.894 505.544,341.394 506.5,338C 527.167,337.333 547.833,337.333 568.5,338C 579.303,338.311 589.969,339.645 600.5,342C 618.308,346.809 628.808,358.309 632,376.5C 636.357,400.948 629.19,420.948 610.5,436.5 Z M 533.5,381.5 C 543.172,381.334 552.839,381.5 562.5,382C 574.654,384.821 582.154,392.321 585,404.5C 585.962,411.991 585.462,419.324 583.5,426.5C 565.906,428.344 548.239,429.01 530.5,428.5C 530.5,412.833 530.5,397.167 530.5,381.5C 531.5,381.5 532.5,381.5 533.5,381.5 Z"/></g>
<g><path style="opacity:1" fill="#f7f9fc" d="M 784.5,360.5 C 757.241,359.509 729.907,359.176 702.5,359.5C 702.5,363.167 702.5,366.833 702.5,370.5C 702.244,374.269 702.577,377.936 703.5,381.5C 703.5,394.167 703.5,406.833 703.5,419.5C 732.169,419.333 760.835,419.5 789.5,420C 790.643,426.418 790.81,432.918 790,439.5C 786.851,441.362 783.351,442.029 779.5,441.5C 753.878,440.518 728.211,440.185 702.5,440.5C 702.5,443.833 702.5,447.167 702.5,450.5C 702.5,454.167 702.5,457.833 702.5,461.5C 703.5,461.5 704.5,461.5 705.5,461.5C 703.546,474.921 702.879,488.588 703.5,502.5C 733.835,502.333 764.168,502.5 794.5,503C 795.645,509.752 795.811,516.586 795,523.5C 791.943,524.451 788.777,524.784 785.5,524.5C 784.833,524.5 784.167,524.5 783.5,524.5C 749.337,523.502 715.004,523.168 680.5,523.5C 681.163,465.49 680.496,407.824 678.5,350.5C 677.5,350.5 676.5,350.5 675.5,350.5C 675.5,349.833 675.5,349.167 675.5,348.5C 676.833,348.5 678.167,348.5 679.5,348.5C 678.382,345.145 678.382,341.812 679.5,338.5C 717.833,337.167 756.167,337.167 794.5,338.5C 795.875,345.518 795.708,352.518 794,359.5C 790.943,360.451 787.777,360.784 784.5,360.5 Z"/></g>
<g><path style="opacity:1" fill="#f8f9fc" d="M 935.5,452.5 C 938.749,458.653 942.749,464.32 947.5,469.5C 947.5,470.167 947.833,470.5 948.5,470.5C 951.092,475.096 954.092,479.429 957.5,483.5C 958.5,439.172 958.833,394.838 958.5,350.5C 957.167,350.5 955.833,350.5 954.5,350.5C 954.5,349.833 954.5,349.167 954.5,348.5C 955.5,348.5 956.5,348.5 957.5,348.5C 957.211,344.894 957.544,341.394 958.5,338C 966.08,337.187 973.58,337.353 981,338.5C 981.667,400.167 981.667,461.833 981,523.5C 977.943,524.451 974.777,524.784 971.5,524.5C 967.548,523.804 963.548,523.304 959.5,523C 925.329,474.671 890.995,426.504 856.5,378.5C 855.502,386.472 855.169,394.472 855.5,402.5C 855.172,414.012 855.505,425.346 856.5,436.5C 856.667,465.502 856.5,494.502 856,523.5C 852.73,524.132 849.563,524.799 846.5,525.5C 842.404,523.787 838.07,523.121 833.5,523.5C 833.5,465.833 833.5,408.167 833.5,350.5C 832.5,350.5 831.5,350.5 830.5,350.5C 830.5,349.833 830.5,349.167 830.5,348.5C 832.171,345.392 833.171,341.892 833.5,338C 840.94,337.072 848.274,337.406 855.5,339C 882.309,376.804 908.976,414.637 935.5,452.5 Z"/></g>
<g><path style="opacity:1" fill="#f7f9fc" d="M 1148.5,510.5 C 1148.65,509.448 1148.48,508.448 1148,507.5C 1136.3,515.29 1123.47,520.123 1109.5,522C 1082.53,523.406 1055.53,523.906 1028.5,523.5C 1028.5,465.833 1028.5,408.167 1028.5,350.5C 1027.5,350.5 1026.5,350.5 1025.5,350.5C 1025.5,350.167 1025.5,349.833 1025.5,349.5C 1026.12,349.389 1026.62,349.056 1027,348.5C 1027.21,344.911 1027.71,341.411 1028.5,338C 1057.88,336.978 1087.21,337.645 1116.5,340C 1153.81,348.982 1175.64,372.482 1182,410.5C 1185.86,436.455 1182.19,461.122 1171,484.5C 1164.38,493.95 1156.88,502.616 1148.5,510.5 Z M 1053.5,381.5 C 1054.83,381.5 1056.17,381.5 1057.5,381.5C 1069.63,380.927 1081.63,381.76 1093.5,384C 1114.23,391.065 1127.4,405.231 1133,426.5C 1137.99,450.254 1135.83,473.254 1126.5,495.5C 1109.98,501.78 1092.81,504.447 1075,503.5C 1067.83,503.167 1060.67,502.833 1053.5,502.5C 1053.29,501.914 1052.96,501.414 1052.5,501C 1053.5,461.239 1053.83,421.406 1053.5,381.5 Z"/></g>
<g><path style="opacity:0.25" fill="#a5a3ff" d="M 1025.5,349.5 C 1025.5,349.833 1025.5,350.167 1025.5,350.5C 1022.94,350.198 1020.61,350.532 1018.5,351.5C 1017.83,351.5 1017.17,351.5 1016.5,351.5C 1016.95,350.542 1017.62,349.708 1018.5,349C 1021.04,348.204 1023.37,348.371 1025.5,349.5 Z"/></g>
<g><path style="opacity:0.392" fill="#a19dff" d="M 675.5,348.5 C 675.5,349.167 675.5,349.833 675.5,350.5C 672.833,350.5 670.167,350.5 667.5,350.5C 667.611,349.883 667.944,349.383 668.5,349C 670.81,348.503 673.143,348.337 675.5,348.5 Z"/></g>
<g><path style="opacity:0.455" fill="#a4a3ff" d="M 830.5,348.5 C 830.5,349.167 830.5,349.833 830.5,350.5C 827.833,350.5 825.167,350.5 822.5,350.5C 824.635,348.631 827.302,347.964 830.5,348.5 Z"/></g>
<g><path style="opacity:0.345" fill="#acaaff" d="M 954.5,348.5 C 954.5,349.167 954.5,349.833 954.5,350.5C 951.763,350.401 949.096,350.735 946.5,351.5C 948.391,348.828 951.058,347.828 954.5,348.5 Z"/></g>
<g><path style="opacity:1" fill="#6a61fc" d="M 371.5,350.5 C 372.497,350.47 373.164,350.97 373.5,352C 352.973,408.887 332.306,465.721 311.5,522.5C 317.421,522.941 323.087,523.941 328.5,525.5C 327.351,528.744 326.018,531.911 324.5,535C 322.19,535.497 319.857,535.663 317.5,535.5C 311.884,534.875 306.217,534.208 300.5,533.5C 321.5,476.167 342.5,418.833 363.5,361.5C 362.398,360.824 361.398,360.158 360.5,359.5C 361.791,359.737 362.791,359.404 363.5,358.5C 366.135,356.661 367.468,353.994 367.5,350.5C 368.833,350.5 370.167,350.5 371.5,350.5 Z"/></g>
<g><path style="opacity:1" fill="#6562fe" d="M 502.5,348.5 C 503.183,350.176 504.517,350.843 506.5,350.5C 506.5,408.167 506.5,465.833 506.5,523.5C 510.514,523.334 514.514,523.501 518.5,524C 519.056,524.383 519.389,524.883 519.5,525.5C 519.784,528.777 519.451,531.943 518.5,535C 515.183,535.498 511.85,535.665 508.5,535.5C 504.265,534.564 499.931,534.231 495.5,534.5C 495.5,476.5 495.5,418.5 495.5,360.5C 493.901,360.768 492.568,360.434 491.5,359.5C 492.5,359.5 493.5,359.5 494.5,359.5C 494.249,356.091 494.583,352.758 495.5,349.5C 497.743,348.526 500.076,348.192 502.5,348.5 Z"/></g>
<g><path style="opacity:0.999" fill="#675ffc" d="M 667.5,350.5 C 670.167,350.5 672.833,350.5 675.5,350.5C 676.5,350.5 677.5,350.5 678.5,350.5C 679.496,408.429 679.829,466.429 679.5,524.5C 714.167,524.5 748.833,524.5 783.5,524.5C 784.167,524.5 784.833,524.5 785.5,524.5C 785.665,527.85 785.498,531.183 785,534.5C 781.606,535.456 778.106,535.789 774.5,535.5C 739.24,534.507 703.906,534.174 668.5,534.5C 668.5,476.5 668.5,418.5 668.5,360.5C 666.901,360.768 665.568,360.434 664.5,359.5C 665.5,359.5 666.5,359.5 667.5,359.5C 667.5,356.5 667.5,353.5 667.5,350.5 Z"/></g>
<g><path style="opacity:0.999" fill="#6560fd" d="M 822.5,350.5 C 825.167,350.5 827.833,350.5 830.5,350.5C 831.5,350.5 832.5,350.5 833.5,350.5C 833.5,408.167 833.5,465.833 833.5,523.5C 838.07,523.121 842.404,523.787 846.5,525.5C 846.817,528.572 846.484,531.572 845.5,534.5C 841.906,535.426 838.24,535.759 834.5,535.5C 830.702,534.517 826.702,534.183 822.5,534.5C 823.15,476.019 822.483,417.686 820.5,359.5C 821.167,356.5 821.833,353.5 822.5,350.5 Z"/></g>
<g><path style="opacity:1" fill="#bbbbfd" d="M 678.5,350.5 C 680.496,407.824 681.163,465.49 680.5,523.5C 715.004,523.168 749.337,523.502 783.5,524.5C 748.833,524.5 714.167,524.5 679.5,524.5C 679.829,466.429 679.496,408.429 678.5,350.5 Z"/></g>
<g><path style="opacity:1" fill="#6160fe" d="M 954.5,350.5 C 955.833,350.5 957.167,350.5 958.5,350.5C 958.833,394.838 958.5,439.172 957.5,483.5C 954.092,479.429 951.092,475.096 948.5,470.5C 948.832,432.996 948.498,395.663 947.5,358.5C 946.781,356.236 946.448,353.903 946.5,351.5C 949.096,350.735 951.763,350.401 954.5,350.5 Z"/></g>
<g><path style="opacity:1" fill="#6461fe" d="M 1016.5,351.5 C 1017.17,351.5 1017.83,351.5 1018.5,351.5C 1021.5,351.5 1024.5,351.5 1027.5,351.5C 1027.17,409.002 1027.5,466.336 1028.5,523.5C 1055.53,523.906 1082.53,523.406 1109.5,522C 1123.47,520.123 1136.3,515.29 1148,507.5C 1148.48,508.448 1148.65,509.448 1148.5,510.5C 1145.19,513.471 1141.86,516.471 1138.5,519.5C 1138.44,518.957 1138.11,518.624 1137.5,518.5C 1126.16,525.78 1113.83,530.614 1100.5,533C 1073.19,534.385 1045.86,534.885 1018.5,534.5C 1019.16,475.824 1018.5,417.49 1016.5,359.5C 1016.5,356.833 1016.5,354.167 1016.5,351.5 Z"/></g>
<g><path style="opacity:1" fill="#706fff" d="M 1018.5,351.5 C 1020.61,350.532 1022.94,350.198 1025.5,350.5C 1026.5,350.5 1027.5,350.5 1028.5,350.5C 1028.5,408.167 1028.5,465.833 1028.5,523.5C 1027.5,466.336 1027.17,409.002 1027.5,351.5C 1024.5,351.5 1021.5,351.5 1018.5,351.5 Z"/></g>
<g><path style="opacity:0.275" fill="#938eff" d="M 371.5,348.5 C 371.5,349.167 371.5,349.833 371.5,350.5C 370.167,350.5 368.833,350.5 367.5,350.5C 367.468,353.994 366.135,356.661 363.5,358.5C 364.327,355.868 365.16,353.202 366,350.5C 367.444,348.845 369.278,348.178 371.5,348.5 Z"/></g>
<g><path style="opacity:1" fill="#8a88fe" d="M 1100.5,359.5 C 1084.5,359.5 1068.5,359.5 1052.5,359.5C 1052.5,362.833 1052.5,366.167 1052.5,369.5C 1052.17,369.5 1051.83,369.5 1051.5,369.5C 1051.5,365.833 1051.5,362.167 1051.5,358.5C 1068.01,358.17 1084.34,358.504 1100.5,359.5 Z"/></g>
<g><path style="opacity:1" fill="#6661fd" d="M 593.5,422.5 C 596.356,412.031 597.189,401.365 596,390.5C 591.044,376.919 581.211,370.085 566.5,370C 554.171,369.5 541.838,369.333 529.5,369.5C 529.5,365.833 529.5,362.167 529.5,358.5C 544.837,358.333 560.17,358.5 575.5,359C 601.078,361.257 611.578,375.09 607,400.5C 605.785,409.944 601.285,417.277 593.5,422.5 Z"/></g>
<g><path style="opacity:1" fill="#6b5ffb" d="M 784.5,360.5 C 784.5,363.833 784.5,367.167 784.5,370.5C 780.833,370.5 777.167,370.5 773.5,370.5C 749.833,370.5 726.167,370.5 702.5,370.5C 702.5,366.833 702.5,363.167 702.5,359.5C 729.907,359.176 757.241,359.509 784.5,360.5 Z"/></g>
<g><path style="opacity:1" fill="#6560fd" d="M 1100.5,359.5 C 1133.59,363.093 1152.43,381.427 1157,414.5C 1159.8,436.213 1156.47,456.88 1147,476.5C 1143.71,481.957 1139.54,486.623 1134.5,490.5C 1149.18,463.191 1151.34,434.858 1141,405.5C 1130.45,383.625 1112.95,371.792 1088.5,370C 1076.5,369.5 1064.5,369.333 1052.5,369.5C 1052.5,366.167 1052.5,362.833 1052.5,359.5C 1068.5,359.5 1084.5,359.5 1100.5,359.5 Z"/></g>
<g><path style="opacity:1" fill="#6662fd" d="M 427.5,456.5 C 423.285,458.436 418.619,459.103 413.5,458.5C 406.308,436.09 398.808,413.757 391,391.5C 389.458,387.262 387.625,383.262 385.5,379.5C 387.655,373.213 389.655,366.88 391.5,360.5C 392.822,360.33 393.989,360.663 395,361.5C 405.992,393.148 416.826,424.815 427.5,456.5 Z"/></g>
<g><path style="opacity:1" fill="#f5359e" d="M 360.5,359.5 C 361.398,360.158 362.398,360.824 363.5,361.5C 342.5,418.833 321.5,476.167 300.5,533.5C 306.217,534.208 311.884,534.875 317.5,535.5C 317.056,539.332 315.722,542.832 313.5,546C 305.507,546.5 297.507,546.666 289.5,546.5C 289.726,542.708 290.56,539.041 292,535.5C 313.589,477.667 334.589,419.667 355,361.5C 356.444,359.845 358.278,359.178 360.5,359.5 Z"/></g>
<g><path style="opacity:1" fill="#f6339b" d="M 491.5,359.5 C 492.568,360.434 493.901,360.768 495.5,360.5C 495.5,418.5 495.5,476.5 495.5,534.5C 499.931,534.231 504.265,534.564 508.5,535.5C 508.789,539.106 508.456,542.606 507.5,546C 499.841,546.5 492.174,546.666 484.5,546.5C 484.5,484.167 484.5,421.833 484.5,359.5C 486.833,359.5 489.167,359.5 491.5,359.5 Z"/></g>
<g><path style="opacity:0.982" fill="#f5339c" d="M 664.5,359.5 C 665.568,360.434 666.901,360.768 668.5,360.5C 668.5,418.5 668.5,476.5 668.5,534.5C 703.906,534.174 739.24,534.507 774.5,535.5C 774.039,539.171 773.705,542.838 773.5,546.5C 734.833,546.5 696.167,546.5 657.5,546.5C 657.333,484.499 657.5,422.499 658,360.5C 660.041,359.577 662.208,359.244 664.5,359.5 Z"/></g>
<g><path style="opacity:1" fill="#f7339b" d="M 820.5,359.5 C 822.483,417.686 823.15,476.019 822.5,534.5C 826.702,534.183 830.702,534.517 834.5,535.5C 834.789,539.106 834.456,542.606 833.5,546C 826.174,546.5 818.841,546.666 811.5,546.5C 811.5,484.167 811.5,421.833 811.5,359.5C 814.5,359.5 817.5,359.5 820.5,359.5 Z"/></g>
<g><path style="opacity:1" fill="#f6349b" d="M 944.5,359.5 C 944.821,361.048 945.821,361.715 947.5,361.5C 947.5,397.5 947.5,433.5 947.5,469.5C 942.749,464.32 938.749,458.653 935.5,452.5C 936.498,421.671 936.831,390.671 936.5,359.5C 939.167,359.5 941.833,359.5 944.5,359.5 Z"/></g>
<g><path style="opacity:1" fill="#8b54e3" d="M 947.5,358.5 C 948.498,395.663 948.832,432.996 948.5,470.5C 947.833,470.5 947.5,470.167 947.5,469.5C 947.5,433.5 947.5,397.5 947.5,361.5C 945.821,361.715 944.821,361.048 944.5,359.5C 945.791,359.737 946.791,359.404 947.5,358.5 Z"/></g>
<g><path style="opacity:0.997" fill="#f5349c" d="M 1014.5,359.5 C 1014.82,361.048 1015.82,361.715 1017.5,361.5C 1017.17,419.336 1017.5,477.002 1018.5,534.5C 1045.86,534.885 1073.19,534.385 1100.5,533C 1113.83,530.614 1126.16,525.78 1137.5,518.5C 1138.11,518.624 1138.44,518.957 1138.5,519.5C 1127.36,531.413 1113.69,539.246 1097.5,543C 1090.87,544.217 1084.2,545.217 1077.5,546C 1053.84,546.5 1030.17,546.667 1006.5,546.5C 1006.5,484.167 1006.5,421.833 1006.5,359.5C 1009.17,359.5 1011.83,359.5 1014.5,359.5 Z"/></g>
<g><path style="opacity:1" fill="#9251de" d="M 1014.5,359.5 C 1015.17,359.5 1015.83,359.5 1016.5,359.5C 1018.5,417.49 1019.16,475.824 1018.5,534.5C 1017.5,477.002 1017.17,419.336 1017.5,361.5C 1015.82,361.715 1014.82,361.048 1014.5,359.5 Z"/></g>
<g><path style="opacity:1" fill="#f5359d" d="M 529.5,369.5 C 541.838,369.333 554.171,369.5 566.5,370C 581.211,370.085 591.044,376.919 596,390.5C 597.189,401.365 596.356,412.031 593.5,422.5C 590.433,424.413 587.099,425.747 583.5,426.5C 585.462,419.324 585.962,411.991 585,404.5C 582.154,392.321 574.654,384.821 562.5,382C 552.839,381.5 543.172,381.334 533.5,381.5C 532.432,380.566 531.099,380.232 529.5,380.5C 529.5,376.833 529.5,373.167 529.5,369.5 Z"/></g>
<g><path style="opacity:1" fill="#f7359e" d="M 702.5,370.5 C 726.167,370.5 749.833,370.5 773.5,370.5C 773.5,374.167 773.5,377.833 773.5,381.5C 750.167,381.5 726.833,381.5 703.5,381.5C 702.577,377.936 702.244,374.269 702.5,370.5 Z"/></g>
<g><path style="opacity:1" fill="#f9a3d3" d="M 1051.5,369.5 C 1051.83,369.5 1052.17,369.5 1052.5,369.5C 1052.33,372.85 1052.5,376.183 1053,379.5C 1054.62,380.099 1056.12,380.766 1057.5,381.5C 1056.17,381.5 1054.83,381.5 1053.5,381.5C 1051.58,377.971 1050.91,373.971 1051.5,369.5 Z"/></g>
<g><path style="opacity:1" fill="#f5359d" d="M 1052.5,369.5 C 1064.5,369.333 1076.5,369.5 1088.5,370C 1112.95,371.792 1130.45,383.625 1141,405.5C 1151.34,434.858 1149.18,463.191 1134.5,490.5C 1132.14,492.678 1129.47,494.345 1126.5,495.5C 1135.83,473.254 1137.99,450.254 1133,426.5C 1127.4,405.231 1114.23,391.065 1093.5,384C 1081.63,381.76 1069.63,380.927 1057.5,381.5C 1056.12,380.766 1054.62,380.099 1053,379.5C 1052.5,376.183 1052.33,372.85 1052.5,369.5 Z"/></g>
<g><path style="opacity:1" fill="#6561fd" d="M 971.5,524.5 C 971.665,527.85 971.498,531.183 971,534.5C 967.17,535.199 963.337,535.866 959.5,536.5C 959.389,535.883 959.056,535.383 958.5,535C 954.911,534.793 951.411,534.293 948,533.5C 917.145,489.767 886.311,446.1 855.5,402.5C 855.169,394.472 855.502,386.472 856.5,378.5C 890.995,426.504 925.329,474.671 959.5,523C 963.548,523.304 967.548,523.804 971.5,524.5 Z"/></g>
<g><path style="opacity:1" fill="#f5369d" d="M 385.5,379.5 C 387.625,383.262 389.458,387.262 391,391.5C 398.808,413.757 406.308,436.09 413.5,458.5C 407.833,458.5 402.167,458.5 396.5,458.5C 396.5,458.167 396.5,457.833 396.5,457.5C 397.097,457.265 397.43,456.765 397.5,456C 394.563,448.297 392.063,440.463 390,432.5C 386.417,422.345 382.583,412.345 378.5,402.5C 379.964,394.571 382.298,386.904 385.5,379.5 Z"/></g>
<g><path style="opacity:1" fill="#f6359c" d="M 855.5,402.5 C 886.311,446.1 917.145,489.767 948,533.5C 951.411,534.293 954.911,534.793 958.5,535C 959.056,535.383 959.389,535.883 959.5,536.5C 960.833,539.833 960.833,543.167 959.5,546.5C 951.913,546.814 944.413,546.481 937,545.5C 910.694,507.695 884.194,470.028 857.5,432.5C 856.571,433.689 856.238,435.022 856.5,436.5C 855.505,425.346 855.172,414.012 855.5,402.5 Z"/></g>
<g><path style="opacity:1" fill="#7769fc" d="M 610.5,436.5 C 606.14,440.86 601.806,445.194 597.5,449.5C 596.778,449.082 596.278,448.416 596,447.5C 594.124,448.609 592.291,449.609 590.5,450.5C 587.998,448.83 585.998,446.664 584.5,444C 593.063,442.646 601.063,439.813 608.5,435.5C 609.183,435.863 609.85,436.196 610.5,436.5 Z"/></g>
<g><path style="opacity:1" fill="#6260fe" d="M 779.5,441.5 C 779.784,444.777 779.451,447.943 778.5,451C 775.183,451.498 771.85,451.665 768.5,451.5C 746.575,450.511 724.575,450.178 702.5,450.5C 702.5,447.167 702.5,443.833 702.5,440.5C 728.211,440.185 753.878,440.518 779.5,441.5 Z"/></g>
<g><path style="opacity:1" fill="#6662fe" d="M 631.5,525.5 C 633.144,527.481 634.81,529.481 636.5,531.5C 637.711,532.72 637.711,533.887 636.5,535C 631.177,535.499 625.844,535.666 620.5,535.5C 616.881,534.82 613.214,534.32 609.5,534C 590.167,509.333 570.833,484.667 551.5,460C 544.174,459.5 536.841,459.334 529.5,459.5C 529.5,455.833 529.5,452.167 529.5,448.5C 540.505,448.333 551.505,448.5 562.5,449C 581.592,473.848 600.925,498.515 620.5,523C 624.421,523.107 628.087,523.94 631.5,525.5 Z"/></g>
<g><path style="opacity:0.999" fill="#f64bac" d="M 597.5,449.5 C 596.5,451.167 595.167,452.5 593.5,453.5C 591.5,453.5 590.5,452.5 590.5,450.5C 592.291,449.609 594.124,448.609 596,447.5C 596.278,448.416 596.778,449.082 597.5,449.5 Z"/></g>
<g><path style="opacity:1" fill="#f4369f" d="M 702.5,450.5 C 724.575,450.178 746.575,450.511 768.5,451.5C 768.5,454.833 768.5,458.167 768.5,461.5C 747.5,461.5 726.5,461.5 705.5,461.5C 704.5,461.5 703.5,461.5 702.5,461.5C 702.5,457.833 702.5,454.167 702.5,450.5 Z"/></g>
<g><path style="opacity:1" fill="#d7bff2" d="M 427.5,456.5 C 428.404,457.209 428.737,458.209 428.5,459.5C 417.654,459.828 406.987,459.494 396.5,458.5C 402.167,458.5 407.833,458.5 413.5,458.5C 418.619,459.103 423.285,458.436 427.5,456.5 Z"/></g>
<g><path style="opacity:1" fill="#f5349d" d="M 529.5,459.5 C 536.841,459.334 544.174,459.5 551.5,460C 570.833,484.667 590.167,509.333 609.5,534C 613.214,534.32 616.881,534.82 620.5,535.5C 621.738,537.619 623.238,539.619 625,541.5C 626.009,543.025 626.509,544.692 626.5,546.5C 617.161,546.666 607.827,546.5 598.5,546C 580,522.167 561.5,498.333 543,474.5C 539.574,470.514 535.407,469.514 530.5,471.5C 529.57,467.6 529.237,463.6 529.5,459.5 Z"/></g>
<g><path style="opacity:1" fill="#7777fe" d="M 351.5,478.5 C 365.329,477.833 379.329,477.5 393.5,477.5C 407.85,477.501 421.85,478.167 435.5,479.5C 407.574,478.509 379.574,478.176 351.5,478.5 Z"/></g>
<g><path style="opacity:1" fill="#6461fe" d="M 351.5,478.5 C 379.574,478.176 407.574,478.509 435.5,479.5C 440.428,493.784 445.261,508.117 450,522.5C 454.303,523.059 458.469,524.059 462.5,525.5C 462.396,528.09 463.063,530.423 464.5,532.5C 464.392,533.442 464.059,534.275 463.5,535C 459.514,535.499 455.514,535.666 451.5,535.5C 447.566,534.64 443.566,534.307 439.5,534.5C 434.501,519.172 429.501,503.838 424.5,488.5C 399.167,487.833 373.833,487.167 348.5,486.5C 348.733,483.458 349.733,480.792 351.5,478.5 Z"/></g>
<g><path style="opacity:1" fill="#9053df" d="M 348.5,486.5 C 373.833,487.167 399.167,487.833 424.5,488.5C 398.833,488.5 373.167,488.5 347.5,488.5C 347.328,487.508 347.662,486.842 348.5,486.5 Z"/></g>
<g><path style="opacity:1" fill="#f6349d" d="M 347.5,488.5 C 373.167,488.5 398.833,488.5 424.5,488.5C 429.501,503.838 434.501,519.172 439.5,534.5C 443.566,534.307 447.566,534.64 451.5,535.5C 451.473,538.23 452.14,540.73 453.5,543C 453.415,544.107 453.081,545.107 452.5,546C 444.5,546.667 436.5,546.667 428.5,546C 423.014,530.722 417.68,515.389 412.5,500C 390.169,499.5 367.836,499.333 345.5,499.5C 344.624,499.631 343.957,499.298 343.5,498.5C 344.846,495.145 346.18,491.812 347.5,488.5 Z"/></g>
</svg>
